<svg xmlns="http://www.w3.org/2000/svg" x="0" y="0" version="1.1" viewBox="0 0 395.3 184.3" xml:space="preserve"><title>Mission Aviation Fellowship</title><path fill="#878a8f" d="M388.6 79c0 1.3-4.2.5-10.5 2.6-9.8 3.2-12.8 5.7-12.9 7.9-.3 5.5 12.5 16.2 9.2 31.4-2 9.3-22.5 23.9-58 30.4-27.6 5-52.9 9.9-62.1 20.5 0 0 9-16.5 40-23.4 37.2-8.3 65.1-21.4 66.6-33.9 1.3-11.3-4.8-16.5-5.1-23-.1-2.8 2.8-6.4 6.2-8 4.7-2.4 15.7-6.1 26.6-4.5z"/><path fill="#d71923" d="M349.9 62.9s1.4-2.2 1.1-6.6c-.3-5.3-5.4-11.4-20.2-14.1C311.3 38.6 286.4 32 273 9.9c0 0 13.4 14.4 41.8 18.6 29.4 4.3 37.9 7.6 42.4 14.1 5 7.4 2.4 16.4 1.1 18.7 0 0 5.7-1.2 12.3 1.3 5.2 2.1 8.1 7.3 8.4 10.6.1 1.4.3 1.4.3 1.4s-.1.5-3.1-2.3c-3.9-3.5-11.9-5-21.6-3.1-9.5 1.8-14 5.2-22.7 7.7-11.2 3.2-21.7 3.8-21.7 3.8s12.5-3.8 22.8-10.3c10.5-6.7 16.9-7.5 16.9-7.5z"/><path d="M262.2 95.4l4-14.8s22.6 2.4 40.9.2c1.5-5.6 5.8-21.4 5.8-21.4h-42.3s-10.4.1-16.9 4.4c-8.8 5.9-10.4 12.2-10.4 12.2l-9.5 35.3c8.4-1.6 17-3.5 25.8-5.9l2.6-10zm-158.8 12.8l-10.7 38.4H117l7.9-29.3c4.1 1.5 8.3 2.9 12.4 4.1l-17.4 25.2h26.3l13-19.7c10.6 2.2 21 3.6 31.1 4.5l2.1 15.2h25.4l-2.2-14.1c4.3 0 8.4-.1 12.4-.3l-3.9 14.4h24.3s6.4-14.4 25.2-23.8c20.6-10.3 27-25.1 27-25.1-101.2 45.2-197.2 10.5-197.2 10.5z" fill="#004d83"/><path d="M168.9 112l16.3-24.9 3.2 24.9.4 4.3c7.7-.3 15.7-.9 24-1.9L204.2 59c-4.2-.6-11-1.7-22.2 4.1-6.7 3.5-12 10.8-12 10.8l-28.2 40.9c7.3.8 15.4 1.3 24.2 1.6l2.9-4.4zm-28.4-52.7c-5.3 0-18.4-1.1-29.1 5.8-9.2 5.9-12.8 11.3-12.8 11.3L77 101.2 63.9 59.3h-1.4s-9-.2-17.7 5c-7.2 4.4-10.6 12.2-10.6 12.2l-23.4 70h24.7l16.2-43.7L64.5 152l38.9-44s8.4 2.4 22.7 4.7l14.4-53.4s-.1 0 0 0z" fill="#004d83"/></svg>
