<svg xmlns="http://www.w3.org/2000/svg" xmlns:xlink="http://www.w3.org/1999/xlink" width="1920" zoomAndPan="magnify" viewBox="0 0 1440 809.999993" height="1080" preserveAspectRatio="xMidYMid meet" version="1.2"><defs><clipPath id="3384427ffd"><path d="M 538 228.363281 L 618 228.363281 L 618 308 L 538 308 Z M 538 228.363281 "/></clipPath></defs><g id="7b7a6b05a5"><path style=" stroke:none;fill-rule:nonzero;fill:#000000;fill-opacity:1;" d="M 623.800781 350 C 624.011719 349.832031 624.042969 349.816406 623.800781 350 Z M 718.058594 275.285156 C 662.722656 308.914062 598.410156 327.464844 533.71875 316.085938 C 502.664062 310.625 471.554688 298.699219 445.988281 279.984375 C 445.570312 279.679688 445.15625 279.359375 444.734375 279.054688 C 444.679688 279.003906 444.652344 278.984375 444.601562 278.953125 C 444.589844 278.941406 444.589844 278.941406 444.582031 278.933594 C 444.347656 278.742188 444.117188 278.566406 443.890625 278.378906 C 439.449219 274.699219 433.949219 280.226562 437.59375 284.671875 C 448.429688 297.886719 461.390625 309.65625 474.816406 320.15625 C 486.554688 329.339844 499.128906 337.390625 512.726562 343.558594 C 520.828125 347.242188 530.429688 348.597656 537.675781 353.914062 C 546.832031 360.628906 549.3125 374.109375 550.160156 384.628906 C 551.527344 401.496094 549.101562 418.628906 545.96875 435.167969 C 538.378906 475.050781 525.039062 513.875 510.644531 551.746094 C 501.257812 576.441406 491.140625 600.894531 480.152344 624.917969 C 479.71875 625.867188 479.28125 626.816406 478.84375 627.757812 C 476.386719 633.003906 483.148438 636.871094 486.523438 632.253906 C 517.144531 590.464844 545.332031 546.316406 566.304688 498.820312 C 571.125 487.894531 576.117188 476.480469 579.738281 464.824219 C 600.042969 520.902344 622.105469 576.5625 646.917969 630.789062 C 649.03125 635.417969 656.523438 632.113281 655.054688 627.363281 C 636.871094 568.476562 619.890625 508.253906 612.34375 446.933594 C 609.164062 421.082031 606.382812 392.371094 614.003906 366.96875 C 615.351562 362.464844 616.226562 360.203125 618.582031 356.226562 C 620.335938 353.269531 620.488281 352.933594 623.269531 350.460938 C 623.445312 350.308594 623.585938 350.179688 623.699219 350.085938 C 624.050781 349.832031 624.40625 349.582031 624.773438 349.351562 C 625.164062 349.105469 625.589844 348.90625 626.007812 348.703125 C 625.78125 348.953125 628.042969 348.316406 626.949219 348.355469 C 627.082031 348.324219 627.203125 348.316406 627.339844 348.273438 C 664.027344 336.683594 701.847656 313.636719 724.136719 281.371094 C 726.730469 277.617188 721.726562 273.042969 718.058594 275.285156 "/><g clip-rule="nonzero" clip-path="url(#3384427ffd)"><path style=" stroke:none;fill-rule:nonzero;fill:#000000;fill-opacity:1;" d="M 577.492188 228.832031 C 599.210938 228.6875 616.800781 245.871094 617.003906 267.59375 C 617.183594 289.210938 599.929688 306.984375 578.148438 307.152344 C 556.429688 307.367188 538.703125 289.890625 538.46875 268.257812 C 538.324219 246.519531 555.773438 229.050781 577.492188 228.832031 "/></g><path style=" stroke:none;fill-rule:evenodd;fill:#bf1b2c;fill-opacity:1;" d="M 597.269531 348.546875 C 583.273438 305.695312 514.046875 342.597656 593.441406 402.085938 C 680.496094 354.5 617.246094 308.125 597.269531 348.546875 "/><path style=" stroke:none;fill-rule:nonzero;fill:#000000;fill-opacity:1;" d="M 904.085938 352.992188 C 904.296875 352.820312 904.328125 352.8125 904.085938 352.992188 Z M 997.34375 279.0625 C 942.59375 312.328125 878.960938 330.695312 814.945312 319.4375 C 784.214844 314.027344 753.4375 302.230469 728.136719 283.710938 C 727.722656 283.40625 727.308594 283.09375 726.902344 282.789062 C 726.839844 282.738281 726.820312 282.722656 726.769531 282.6875 C 726.761719 282.679688 726.761719 282.679688 726.746094 282.667969 C 726.515625 282.488281 726.285156 282.304688 726.070312 282.121094 C 721.667969 278.480469 716.230469 283.953125 719.839844 288.351562 C 730.558594 301.421875 743.382812 313.070312 756.667969 323.457031 C 768.277344 332.539062 780.730469 340.511719 794.175781 346.617188 C 802.195312 350.257812 811.6875 351.597656 818.871094 356.863281 C 827.917969 363.507812 830.378906 376.84375 831.21875 387.25 C 832.566406 403.945312 830.171875 420.898438 827.066406 437.261719 C 819.5625 476.714844 806.359375 515.148438 792.121094 552.613281 C 782.824219 577.042969 772.820312 601.242188 761.949219 625.019531 C 761.511719 625.957031 761.085938 626.890625 760.640625 627.824219 C 758.222656 633.015625 764.902344 636.84375 768.253906 632.269531 C 798.550781 590.929688 826.445312 547.238281 847.1875 500.246094 C 851.964844 489.441406 856.898438 478.140625 860.480469 466.605469 C 880.574219 522.09375 902.402344 577.171875 926.957031 630.828125 C 929.046875 635.414062 936.457031 632.136719 935.007812 627.433594 C 917.015625 569.179688 900.207031 509.582031 892.742188 448.914062 C 889.59375 423.320312 886.851562 394.917969 894.382812 369.78125 C 895.71875 365.320312 896.589844 363.082031 898.921875 359.148438 C 900.660156 356.226562 900.8125 355.890625 903.554688 353.449219 C 903.730469 353.296875 903.871094 353.167969 903.992188 353.074219 C 904.328125 352.820312 904.683594 352.578125 905.046875 352.347656 C 905.4375 352.101562 905.847656 351.917969 906.261719 351.710938 C 906.039062 351.949219 908.285156 351.324219 907.203125 351.363281 C 907.332031 351.332031 907.457031 351.324219 907.585938 351.28125 C 943.890625 339.8125 981.304688 317.007812 1003.367188 285.078125 C 1005.9375 281.371094 1000.976562 276.847656 997.34375 279.0625 "/><path style=" stroke:none;fill-rule:nonzero;fill:#000000;fill-opacity:1;" d="M 858.265625 233.101562 C 879.75 232.953125 897.15625 249.960938 897.359375 271.453125 C 897.53125 292.84375 880.460938 310.425781 858.910156 310.589844 C 837.421875 310.800781 819.886719 293.515625 819.652344 272.109375 C 819.503906 250.59375 836.777344 233.308594 858.265625 233.101562 "/><path style=" stroke:none;fill-rule:evenodd;fill:#bf1b2c;fill-opacity:1;" d="M 877.554688 355.292969 C 866.570312 321.65625 812.234375 350.625 874.558594 397.316406 C 942.878906 359.960938 893.238281 323.570312 877.554688 355.292969 "/><path style=" stroke:none;fill-rule:nonzero;fill:#000000;fill-opacity:1;" d="M 753.28125 419.46875 C 753.417969 419.359375 753.429688 419.351562 753.28125 419.46875 Z M 812.800781 372.273438 C 777.855469 393.515625 737.230469 405.234375 696.378906 398.046875 C 676.769531 394.59375 657.121094 387.066406 640.972656 375.25 C 640.707031 375.050781 640.445312 374.855469 640.183594 374.65625 C 640.140625 374.625 640.128906 374.613281 640.09375 374.59375 C 640.089844 374.589844 640.089844 374.589844 640.082031 374.582031 C 639.9375 374.460938 639.789062 374.347656 639.644531 374.230469 C 636.839844 371.90625 633.367188 375.394531 635.667969 378.207031 C 642.511719 386.550781 650.703125 393.984375 659.179688 400.617188 C 666.597656 406.417969 674.53125 411.5 683.117188 415.398438 C 688.238281 417.726562 694.304688 418.578125 698.882812 421.941406 C 704.664062 426.183594 706.230469 434.699219 706.761719 441.339844 C 707.628906 451.992188 706.09375 462.808594 704.109375 473.257812 C 699.335938 498.445312 690.902344 522.96875 681.808594 546.886719 C 675.878906 562.488281 669.496094 577.929688 662.542969 593.101562 C 662.277344 593.699219 661.996094 594.304688 661.722656 594.894531 C 660.167969 598.210938 664.425781 600.652344 666.570312 597.734375 C 685.917969 571.339844 703.714844 543.460938 716.964844 513.460938 C 720.003906 506.5625 723.164062 499.351562 725.453125 491.984375 C 738.273438 527.410156 752.203125 562.5625 767.878906 596.816406 C 769.214844 599.734375 773.945312 597.648438 773.023438 594.648438 C 761.53125 557.464844 750.800781 519.421875 746.039062 480.691406 C 744.035156 464.359375 742.28125 446.230469 747.09375 430.183594 C 747.933594 427.339844 748.488281 425.910156 749.976562 423.398438 C 751.09375 421.535156 751.183594 421.316406 752.941406 419.761719 C 753.054688 419.660156 753.148438 419.574219 753.21875 419.519531 C 753.4375 419.359375 753.664062 419.207031 753.894531 419.054688 C 754.140625 418.902344 754.410156 418.78125 754.667969 418.648438 C 754.523438 418.804688 755.953125 418.40625 755.261719 418.425781 C 755.351562 418.410156 755.433594 418.40625 755.515625 418.375 C 778.683594 411.058594 802.570312 396.503906 816.648438 376.113281 C 818.285156 373.753906 815.125 370.863281 812.800781 372.273438 "/><path style=" stroke:none;fill-rule:nonzero;fill:#000000;fill-opacity:1;" d="M 724.035156 342.9375 C 737.746094 342.847656 748.855469 353.703125 748.984375 367.414062 C 749.097656 381.074219 738.199219 392.300781 724.449219 392.40625 C 710.726562 392.535156 699.53125 381.5 699.386719 367.839844 C 699.289062 354.109375 710.316406 343.070312 724.035156 342.9375 "/><path style=" stroke:none;fill-rule:evenodd;fill:#bf1b2c;fill-opacity:1;" d="M 736.457031 419.410156 C 728.277344 394.355469 687.8125 415.929688 734.222656 450.707031 C 785.113281 422.890625 748.132812 395.777344 736.457031 419.410156 "/></g></svg>