<svg xmlns="http://www.w3.org/2000/svg" xmlns:xlink="http://www.w3.org/1999/xlink" width="1920" zoomAndPan="magnify" viewBox="0 0 1440 809.999993" height="1080" preserveAspectRatio="xMidYMid meet" version="1.2"><g id="0eaa3c0afd"><path style=" stroke:none;fill-rule:nonzero;fill:#000000;fill-opacity:1;" d="M 644.601562 810.023438 C 641.035156 810.023438 637.621094 809.382812 637.914062 807.714844 C 638.453125 804.65625 632.285156 802.789062 634.917969 801.050781 C 637.550781 799.300781 635.4375 797.65625 636.5625 795.808594 C 636.726562 795.523438 637.082031 795.402344 637.558594 795.402344 C 640.273438 795.402344 647.132812 799.351562 648.929688 801.824219 C 651.042969 804.730469 658.734375 805.773438 658.917969 808.976562 C 658.917969 808.976562 656.714844 808.273438 654.570312 808.273438 C 653.542969 808.273438 652.535156 808.425781 651.785156 808.90625 C 650.707031 809.566406 647.609375 810.023438 644.601562 810.023438 "/><path style=" stroke:none;fill-rule:nonzero;fill:#000000;fill-opacity:1;" d="M 674.566406 488.140625 C 672.890625 488.140625 671.386719 487.632812 671 486.28125 C 670.339844 483.914062 670.785156 483.007812 670.410156 483.007812 C 670.289062 483.007812 670.054688 483.109375 669.648438 483.3125 C 669.546875 483.363281 669.464844 483.382812 669.402344 483.382812 C 668.613281 483.382812 672.382812 478.667969 672.382812 478.667969 C 672.382812 478.667969 673.875 478.4375 675.5625 478.4375 C 677.421875 478.4375 679.503906 478.710938 680.09375 479.867188 C 681.222656 482.074219 681.210938 484.523438 680.0625 486.25 C 679.414062 487.234375 676.832031 488.140625 674.566406 488.140625 "/><path style=" stroke:none;fill-rule:nonzero;fill:#000000;fill-opacity:1;" d="M 687.804688 171.164062 C 678.851562 171.164062 666.945312 168.09375 666.945312 168.09375 C 666.628906 168.09375 666.476562 168.09375 666.164062 168.09375 C 666.164062 168.09375 679.269531 148.953125 686.808594 148.808594 C 684.207031 155.425781 689.226562 159.875 693.28125 159.875 C 693.757812 159.875 694.226562 159.816406 694.664062 159.691406 C 694.664062 159.691406 695.007812 159.449219 695.464844 159.449219 C 696.378906 159.449219 697.742188 160.464844 697.507812 166.652344 C 697.375 170.085938 693.109375 171.164062 687.804688 171.164062 "/><path style=" stroke:none;fill-rule:nonzero;fill:#000000;fill-opacity:1;" d="M 621.789062 83.324219 C 621.699219 83.324219 621.609375 83.304688 621.507812 83.261719 C 620.46875 82.855469 615.53125 79.148438 612.796875 79.148438 C 611.851562 79.148438 611.164062 79.605469 611.019531 80.816406 C 611.019531 80.816406 610.898438 82.835938 609.324219 83.101562 C 608.96875 83.160156 608.378906 83.222656 607.726562 83.222656 C 605.472656 83.222656 602.433594 82.480469 605.433594 78.316406 C 608.773438 73.671875 610.421875 72.035156 612.667969 72.035156 C 613.023438 72.035156 613.398438 72.078125 613.792969 72.148438 C 616.691406 72.714844 623.476562 74.769531 623.34375 77.574219 C 623.222656 80.164062 622.949219 83.324219 621.789062 83.324219 "/><path style=" stroke:none;fill-rule:nonzero;fill:#000000;fill-opacity:1;" d="M 585.6875 61.925781 C 585.464844 61.925781 585.363281 61.835938 585.40625 61.609375 C 585.730469 59.863281 580.394531 60.1875 582.609375 57.617188 C 584.804688 55.035156 586.859375 54.335938 586.859375 54.335938 C 587.050781 54.296875 587.34375 54.285156 587.703125 54.285156 C 588.382812 54.285156 589.285156 54.347656 590.089844 54.40625 C 590.890625 54.46875 591.601562 54.527344 591.917969 54.527344 C 591.988281 54.527344 592.050781 54.519531 592.058594 54.507812 L 594.367188 54.761719 C 594.265625 55.75 594.222656 56.246094 594.121094 57.242188 C 594.121094 57.242188 587.203125 61.925781 585.6875 61.925781 "/><path style=" stroke:none;fill-rule:nonzero;fill:#000000;fill-opacity:1;" d="M 542.203125 67.777344 C 534.53125 67.777344 529.683594 63.824219 529.683594 63.824219 C 535.292969 62.503906 538.125 61.875 543.808594 60.6875 C 543.949219 59.875 544.03125 59.46875 544.171875 58.652344 C 539.488281 59.640625 537.160156 60.15625 532.527344 61.246094 C 532.730469 60.207031 532.84375 59.691406 533.054688 58.664062 C 533.054688 58.664062 537.488281 58.320312 538.199219 57.199219 C 538.910156 56.074219 538.796875 55.238281 534.328125 54.824219 C 534.226562 54.8125 534.125 54.8125 534.023438 54.8125 C 529.4375 54.8125 520.519531 63.519531 520.519531 63.519531 C 519.429688 61.449219 518.890625 60.421875 517.855469 58.398438 C 532.46875 44.917969 541.460938 41.480469 546.84375 41.480469 C 552.433594 41.480469 554.121094 45.191406 554.121094 45.191406 C 557.511719 45.597656 559.230469 45.8125 562.695312 46.296875 C 564.6875 44.792969 565.671875 44.054688 567.652344 42.570312 C 568.203125 44.5 568.488281 45.476562 569.066406 47.425781 C 571.140625 45.027344 572.164062 43.820312 574.21875 41.441406 C 576.484375 41.066406 577.632812 40.871094 579.90625 40.527344 C 579.90625 40.527344 573.679688 50.128906 575.375 50.128906 C 575.398438 50.128906 575.425781 50.128906 575.457031 50.117188 C 575.539062 50.109375 575.609375 50.097656 575.691406 50.097656 C 577.640625 50.097656 580.203125 53.492188 580.203125 53.492188 C 580.203125 53.492188 575.773438 56.722656 570.609375 60.308594 C 568.742188 61.609375 567.226562 62.007812 565.824219 62.007812 C 564.726562 62.007812 563.691406 61.761719 562.59375 61.507812 C 561.496094 61.265625 560.339844 61.023438 558.996094 61.023438 C 558.671875 61.023438 558.335938 61.042969 557.992188 61.074219 C 552.929688 61.539062 555.238281 66.070312 545.617188 67.515625 C 544.425781 67.695312 543.289062 67.777344 542.203125 67.777344 "/><path style=" stroke:none;fill-rule:nonzero;fill:#000000;fill-opacity:1;" d="M 395.824219 159.652344 C 395.703125 159.652344 395.632812 159.570312 395.621094 159.367188 C 395.53125 158.097656 397.207031 156.097656 398.214844 154.796875 C 398.863281 153.953125 400.164062 152.976562 400.652344 152.976562 C 400.914062 152.976562 400.957031 153.25 400.550781 153.972656 C 400.152344 154.671875 400.125 154.867188 400.253906 154.867188 C 400.335938 154.867188 400.46875 154.804688 400.632812 154.746094 C 400.785156 154.683594 400.964844 154.621094 401.128906 154.621094 C 401.363281 154.621094 401.566406 154.734375 401.667969 155.121094 C 402.054688 156.5625 402.5 157.183594 401.300781 157.804688 C 401.046875 157.933594 400.773438 157.996094 400.488281 157.996094 C 399.433594 157.996094 398.316406 157.242188 398.316406 157.242188 C 398.316406 157.242188 396.464844 159.652344 395.824219 159.652344 "/><path style=" stroke:none;fill-rule:nonzero;fill:#000000;fill-opacity:1;" d="M 393.894531 166.925781 C 393.894531 166.925781 393.832031 162.546875 398.519531 160.769531 C 399.003906 160.597656 399.359375 160.515625 399.625 160.515625 C 401.910156 160.515625 396.507812 166.804688 396.507812 166.804688 C 395.449219 166.855469 394.929688 166.875 393.894531 166.925781 "/><path style=" stroke:none;fill-rule:nonzero;fill:#000000;fill-opacity:1;" d="M 389.992188 196.3125 C 389.992188 196.3125 385.074219 195.519531 385.003906 191.558594 C 385.003906 191.558594 386.914062 185.175781 391.730469 185.175781 C 392.023438 185.175781 392.328125 185.195312 392.65625 185.246094 C 398.140625 186.140625 394.65625 194.15625 395.183594 194.949219 C 395.703125 195.753906 389.992188 196.3125 389.992188 196.3125 "/><path style=" stroke:none;fill-rule:nonzero;fill:#000000;fill-opacity:1;" d="M 596.0625 46.582031 C 594.734375 46.582031 593.167969 46.289062 593.167969 46.289062 C 593.167969 46.289062 593.949219 44.03125 588.667969 42.214844 C 588.542969 41.300781 588.472656 40.851562 588.351562 39.949219 C 588.523438 39.847656 589.765625 39.824219 590.984375 39.824219 C 592.234375 39.824219 593.460938 39.855469 593.460938 39.855469 C 593.460938 39.855469 594.09375 41.226562 595.28125 41.226562 C 595.421875 41.226562 595.566406 41.207031 595.71875 41.167969 C 597.191406 40.769531 597.992188 36.6875 597.992188 36.6875 C 599.171875 36.535156 599.75 36.472656 600.941406 36.332031 C 604.222656 35.121094 605.867188 34.523438 609.152344 33.355469 C 609.152344 33.355469 608.183594 41.828125 601.53125 43.351562 C 598.878906 43.636719 598.339844 45.171875 597.8125 46.117188 C 597.609375 46.472656 596.886719 46.582031 596.0625 46.582031 "/><path style=" stroke:none;fill-rule:nonzero;fill:#000000;fill-opacity:1;" d="M 611.648438 40.414062 C 611.285156 40.414062 610.878906 40.386719 610.429688 40.324219 C 610.429688 40.324219 609.101562 35.570312 616.914062 32.867188 C 620.335938 31.675781 622.277344 31.34375 623.375 31.34375 C 624.789062 31.34375 624.820312 31.890625 624.820312 31.890625 C 624.097656 34.003906 623.722656 35.0625 622.988281 37.183594 C 622.988281 37.183594 620.175781 36.269531 618.152344 36.269531 C 617.429688 36.269531 616.800781 36.390625 616.445312 36.71875 C 615.226562 37.8125 615.339844 40.414062 611.648438 40.414062 "/><path style=" stroke:none;fill-rule:nonzero;fill:#000000;fill-opacity:1;" d="M 671.648438 88.800781 C 669.222656 88.800781 664.636719 88.109375 664.464844 88.039062 C 664.253906 87.96875 653.167969 83.152344 652.597656 75.003906 C 652.597656 75.136719 652.3125 75.1875 651.867188 75.1875 C 650.28125 75.1875 646.714844 74.535156 646.714844 74.535156 C 646.714844 74.535156 644.957031 77.480469 641.328125 77.480469 C 640.8125 77.480469 640.253906 77.410156 639.652344 77.277344 C 635 76.203125 636.890625 71.242188 647.160156 71.242188 C 647.417969 71.242188 647.660156 71.253906 647.914062 71.261719 C 653.554688 71.386719 653.5625 71.414062 653.5625 71.414062 C 655.238281 68.144531 656.164062 66.347656 662.066406 64.121094 C 662.167969 64.078125 662.28125 64.070312 662.394531 64.070312 C 664.078125 64.070312 668.0625 67.320312 668.0625 67.320312 C 669.933594 66.265625 670.855469 65.746094 672.707031 64.699219 C 672.707031 64.699219 658.816406 52.109375 656.753906 47.589844 C 656.164062 46.289062 655.402344 45.800781 654.589844 45.800781 C 652.566406 45.800781 650.167969 48.769531 648.96875 49.652344 C 648.25 50.179688 647.261719 50.34375 646.378906 50.34375 C 645.199219 50.34375 644.183594 50.066406 644.183594 50.066406 C 644.183594 50.066406 638.738281 48.128906 635.660156 48.128906 C 634.886719 48.128906 634.269531 48.25 633.914062 48.554688 C 633.179688 49.175781 631.800781 49.40625 630.40625 49.40625 C 628.457031 49.40625 626.503906 48.960938 626.414062 48.5625 C 626.230469 47.902344 624.199219 43.027344 624.199219 43.027344 C 624.199219 43.027344 631.515625 32.347656 640.566406 32.347656 C 641.226562 32.347656 641.910156 32.410156 642.589844 32.53125 C 642.570312 33.292969 642.558594 33.679688 642.539062 34.429688 C 643.441406 34.746094 643.902344 34.898438 644.816406 35.214844 C 644.816406 35.214844 645.636719 35.519531 646.574219 35.519531 C 647.679688 35.519531 648.960938 35.089844 649.246094 33.242188 C 651.296875 33.171875 652.324219 33.140625 654.386719 33.089844 C 658.175781 35.984375 660.117188 37.457031 664.007812 40.445312 C 666.648438 39.417969 667.980469 38.910156 670.601562 37.925781 C 670.601562 37.925781 674.058594 44.835938 686.261719 48.921875 C 686.546875 50.476562 686.6875 51.246094 686.972656 52.800781 C 686.972656 52.800781 691.28125 62.109375 695.699219 64.191406 C 700.109375 66.273438 691.15625 72.5625 691.15625 72.5625 C 687.09375 70.359375 685.0625 69.28125 681.027344 67.148438 C 681.027344 67.148438 680.773438 67.097656 680.417969 67.097656 C 679.269531 67.097656 677.042969 67.625 678.671875 72.097656 C 680.8125 77.960938 680.175781 80.691406 678.496094 83.082031 C 678.273438 83.394531 678.019531 83.527344 677.734375 83.527344 C 676.902344 83.527344 675.824219 82.308594 674.617188 81.089844 C 673.417969 79.871094 672.085938 78.652344 670.746094 78.652344 C 670.511719 78.652344 670.289062 78.679688 670.054688 78.761719 C 666.679688 79.878906 669.019531 83.039062 672.664062 84.359375 C 676.304688 85.671875 673.957031 88 673.019531 88.617188 C 672.816406 88.75 672.320312 88.800781 671.648438 88.800781 "/><path style=" stroke:none;fill-rule:nonzero;fill:#000000;fill-opacity:1;" d="M 662.859375 30.84375 C 661.703125 30.832031 660.828125 30.832031 659.953125 30.832031 C 659.082031 30.832031 658.207031 30.832031 657.046875 30.84375 C 657.078125 30.246094 657.089844 29.949219 657.121094 29.359375 C 655.808594 29.359375 654.660156 29.359375 653.582031 29.359375 C 650.027344 29.359375 647.375 29.390625 643.085938 29.492188 C 643.035156 29.015625 643.015625 28.78125 642.976562 28.3125 C 642.976562 28.3125 631.839844 28.921875 631.523438 28.953125 C 631.523438 28.832031 631.777344 22.105469 638.414062 22.105469 C 640.863281 22.105469 644.164062 23.019531 648.644531 25.507812 C 656.4375 25.144531 660.390625 25.042969 668.183594 24.980469 C 668.183594 24.980469 669.78125 27.492188 662.859375 30.84375 M 631.523438 28.953125 C 631.515625 28.953125 631.515625 28.953125 631.523438 28.953125 "/><path style=" stroke:none;fill-rule:nonzero;fill:#000000;fill-opacity:1;" d="M 655.636719 12.492188 C 655.636719 12.492188 644.53125 11.285156 644.386719 10.867188 C 642.660156 5.890625 653.066406 2.363281 657.273438 2.363281 C 657.617188 2.363281 657.910156 2.382812 658.167969 2.433594 C 661.507812 3.054688 664.648438 8.226562 660.878906 8.367188 C 657.089844 8.511719 655.636719 12.492188 655.636719 12.492188 "/><path style=" stroke:none;fill-rule:nonzero;fill:#000000;fill-opacity:1;" d="M 672.960938 24.3125 C 671.792969 24.3125 670.5625 23.425781 670.5625 23.425781 C 670.5625 23.425781 666.101562 19.605469 665.257812 19.605469 C 665.238281 19.605469 665.21875 19.617188 665.207031 19.617188 C 664.546875 19.828125 661.011719 20.105469 661.011719 20.105469 C 661.011719 20.105469 657.179688 21.171875 655.230469 21.171875 C 654.824219 21.171875 654.5 21.121094 654.292969 21.007812 C 653.1875 20.367188 649.347656 16.4375 649.347656 16.4375 C 653.410156 16.34375 656.203125 16.304688 659.34375 16.304688 C 661.152344 16.304688 663.082031 16.3125 665.429688 16.34375 C 665.429688 15.472656 665.429688 15.042969 665.421875 14.171875 C 664.050781 14.160156 663.367188 14.148438 661.996094 14.140625 C 662.25 13.101562 662.371094 12.585938 662.605469 11.546875 C 664.535156 11.558594 665.503906 11.570312 667.414062 11.589844 C 667.421875 12.402344 667.433594 12.808594 667.441406 13.621094 C 668.785156 13.640625 669.445312 13.652344 670.777344 13.683594 C 670.777344 13.683594 665.359375 7.484375 668.792969 7.484375 C 668.816406 7.484375 668.835938 7.484375 668.855469 7.484375 C 669.148438 7.484375 687.640625 8.234375 690.03125 8.398438 L 690.273438 8.410156 C 691.414062 7.3125 691.980469 6.753906 693.097656 5.664062 C 684.472656 4.558594 680.132812 4.109375 671.414062 3.429688 C 671.394531 2.261719 671.386719 1.683594 671.363281 0.515625 C 679.738281 0.160156 686.667969 -0.0351562 693.066406 -0.0351562 C 705.605469 -0.0351562 716.125 0.695312 731.527344 2.351562 L 731.667969 2.375 L 731.667969 2.382812 C 732.339844 10.460938 712.363281 7.929688 699.023438 11.050781 C 699.023438 11.050781 675.722656 20.195312 674.726562 22.949219 C 674.351562 23.984375 673.671875 24.3125 672.960938 24.3125 "/><path style=" stroke:none;fill-rule:nonzero;fill:#000000;fill-opacity:1;" d="M 750.445312 102.589844 C 747.84375 102.589844 745.101562 101.5625 743.210938 98.292969 C 738.730469 90.546875 729.980469 95.324219 733.496094 79.007812 C 737.003906 62.675781 728.945312 66.691406 733.792969 64.292969 C 738.628906 61.894531 740.144531 46.511719 740.144531 46.511719 L 736.667969 44.417969 C 736.667969 44.417969 734.167969 27.5 726.234375 27.195312 C 700.089844 26.191406 702.46875 14.636719 702.46875 14.636719 C 702.304688 13.753906 704.296875 13.664062 707.566406 13.664062 C 707.945312 13.664062 708.351562 13.664062 708.757812 13.664062 C 709.171875 13.671875 709.609375 13.671875 710.046875 13.671875 C 717.046875 13.671875 727.695312 13.386719 736.757812 8.429688 C 737.765625 8.144531 738.84375 8.023438 739.980469 8.023438 C 748.535156 8.023438 760.210938 15.164062 765.269531 15.988281 C 780.753906 17.847656 788.253906 19.191406 802.714844 22.683594 C 813.726562 27.238281 819.164062 29.6875 829.863281 34.929688 C 829.863281 34.929688 834.730469 37.964844 838.152344 41.402344 C 841.578125 44.84375 849.359375 46.523438 849.359375 46.523438 C 849.359375 46.523438 850.0625 48.664062 847.726562 48.664062 C 846.839844 48.664062 845.519531 48.351562 843.550781 47.496094 C 838.632812 45.363281 837.757812 45.027344 837.695312 45.027344 C 837.667969 45.027344 837.796875 45.097656 837.796875 45.097656 C 837.066406 46.796875 836.679688 47.660156 835.867188 49.4375 C 835.867188 49.4375 837.921875 50.839844 837.746094 52.203125 C 837.554688 53.554688 836.101562 59.335938 834.953125 60.542969 C 834.363281 61.183594 830.613281 61.570312 827.039062 61.570312 C 824.78125 61.570312 822.597656 61.417969 821.285156 61.074219 C 824.242188 63.398438 831.84375 70.398438 832.972656 72.492188 C 833.480469 73.4375 832.992188 73.753906 832.140625 73.753906 C 830.554688 73.753906 827.699219 72.675781 827.699219 72.675781 C 827.699219 72.675781 821.105469 64.882812 819.660156 64.882812 C 819.609375 64.882812 819.558594 64.902344 819.519531 64.921875 C 818.472656 65.625 820.160156 67.28125 820.167969 68.5625 C 820.167969 69.230469 819.457031 69.324219 818.714844 69.324219 C 818.585938 69.324219 818.453125 69.3125 818.320312 69.3125 C 818.199219 69.3125 818.066406 69.3125 817.945312 69.3125 C 817.558594 69.3125 817.242188 69.332031 817.109375 69.484375 C 816.695312 69.941406 819.679688 72.230469 820.921875 72.230469 C 820.992188 72.230469 821.074219 72.21875 821.132812 72.199219 C 821.335938 72.128906 821.652344 72.105469 822.027344 72.105469 C 823.5625 72.105469 826.101562 72.554688 826.101562 72.554688 C 826.101562 72.554688 829.539062 76.40625 829.285156 77.097656 C 829.203125 77.289062 827.941406 77.359375 826.125 77.359375 C 821.4375 77.359375 813.035156 76.894531 811.308594 76.832031 C 808.902344 76.738281 804.90625 75.601562 804.328125 73.558594 C 804.246094 73.265625 803.914062 73.132812 803.394531 73.132812 C 800.273438 73.132812 790.570312 77.785156 789.433594 79.847656 C 788.527344 81.496094 781.824219 82.023438 776.957031 82.023438 C 774.667969 82.023438 772.800781 81.910156 772.097656 81.738281 C 772.066406 81.730469 772.039062 81.730469 772.007812 81.730469 C 769.597656 81.730469 758.585938 98.960938 757.761719 100.050781 C 757.285156 100.6875 754.003906 102.589844 750.445312 102.589844 "/><path style=" stroke:none;fill-rule:nonzero;fill:#000000;fill-opacity:1;" d="M 845.945312 107.261719 C 844.941406 107.261719 844.21875 107.183594 843.964844 107.007812 C 842.625 106.105469 832.140625 102.03125 830.554688 99.449219 C 830.484375 99.132812 830.441406 98.980469 830.371094 98.675781 C 830.511719 98.058594 832.625 93.667969 836.496094 93.667969 C 836.875 93.667969 837.25 93.707031 837.65625 93.800781 C 841.832031 94.703125 846.089844 96.125 848.019531 96.125 C 848.222656 96.125 848.394531 96.105469 848.546875 96.074219 C 848.609375 96.054688 848.679688 96.046875 848.761719 96.046875 C 850.640625 96.046875 856.726562 99.824219 858.40625 103.015625 C 859.828125 105.707031 850.285156 107.261719 845.945312 107.261719 "/><path style=" stroke:none;fill-rule:nonzero;fill:#000000;fill-opacity:1;" d="M 528.210938 319.003906 C 526.828125 316.382812 526.15625 315.082031 524.796875 312.480469 C 525.335938 310.945312 525.597656 310.183594 526.136719 308.648438 C 527.5 308.589844 528.191406 308.558594 529.5625 308.507812 C 529.613281 307.328125 529.632812 306.730469 529.683594 305.539062 C 528.523438 305.589844 527.9375 305.621094 526.789062 305.664062 C 526.929688 303.0625 527.019531 301.761719 527.171875 299.160156 C 531.410156 298.976562 533.523438 298.886719 537.792969 298.710938 C 538.136719 301.769531 538.320312 303.304688 538.675781 306.382812 C 536.5625 306.648438 535.496094 306.789062 533.382812 307.054688 C 533.675781 308.273438 533.828125 308.882812 534.125 310.113281 C 534.125 310.113281 533.789062 310.03125 533.300781 310.03125 C 532.183594 310.03125 530.292969 310.425781 529.824219 313 C 529.144531 316.707031 531.378906 318.890625 531.378906 318.890625 C 530.109375 318.941406 529.480469 318.960938 528.210938 319.003906 "/><path style=" stroke:none;fill-rule:nonzero;fill:#000000;fill-opacity:1;" d="M 542.71875 319.847656 C 541.664062 319.847656 540.851562 318.597656 540.902344 317.023438 C 540.953125 315.445312 541.867188 314.125 542.941406 314.09375 C 542.953125 314.09375 542.972656 314.09375 542.984375 314.09375 C 544.039062 314.09375 544.851562 315.34375 544.800781 316.910156 C 544.761719 318.496094 543.835938 319.804688 542.761719 319.847656 C 542.75 319.847656 542.730469 319.847656 542.71875 319.847656 "/><path style=" stroke:none;fill-rule:nonzero;fill:#000000;fill-opacity:1;" d="M 543.378906 325.34375 C 541.855469 325.34375 540.667969 324.664062 540.6875 323.800781 C 540.71875 322.90625 542.027344 322.144531 543.613281 322.09375 C 543.675781 322.09375 543.726562 322.09375 543.777344 322.09375 C 545.289062 322.09375 546.46875 322.773438 546.449219 323.636719 C 546.429688 324.53125 545.117188 325.292969 543.523438 325.332031 C 543.472656 325.34375 543.429688 325.34375 543.378906 325.34375 "/><path style=" stroke:none;fill-rule:nonzero;fill:#000000;fill-opacity:1;" d="M 545.617188 335.648438 C 543.308594 335.648438 541.488281 334.304688 541.539062 332.609375 C 541.570312 330.871094 543.542969 329.429688 545.910156 329.367188 C 545.972656 329.355469 546.023438 329.355469 546.074219 329.355469 C 548.378906 329.355469 550.1875 330.699219 550.148438 332.394531 C 550.105469 334.132812 548.144531 335.585938 545.757812 335.648438 C 545.707031 335.648438 545.667969 335.648438 545.617188 335.648438 "/><path style=" stroke:none;fill-rule:nonzero;fill:#000000;fill-opacity:1;" d="M 535.496094 347.535156 C 534.582031 347.535156 533.992188 347.503906 533.992188 347.503906 C 533.992188 347.503906 529.277344 345.613281 525.40625 345.613281 C 524.53125 345.613281 523.699219 345.707031 522.976562 345.949219 C 522.632812 346.0625 522.367188 346.113281 522.152344 346.113281 C 519.929688 346.113281 524.308594 340.390625 524.308594 340.390625 C 524.308594 340.390625 516.414062 332.945312 505.035156 332.039062 C 505.035156 332.039062 504.300781 331.828125 503.195312 331.828125 C 501.4375 331.828125 498.714844 332.386719 496.507812 335.292969 C 494.433594 335.179688 493.398438 335.117188 491.328125 335.007812 C 491.703125 333.351562 495.21875 325.984375 505.519531 325.984375 C 505.570312 325.984375 505.632812 325.984375 505.683594 325.984375 C 516.117188 326.066406 517.5 326.117188 525.34375 330.65625 C 533.179688 335.199219 545.464844 341.203125 545.839844 344.597656 C 546.125 347.238281 538.738281 347.535156 535.496094 347.535156 "/><path style=" stroke:none;fill-rule:nonzero;fill:#000000;fill-opacity:1;" d="M 521.675781 361.046875 C 520.476562 360.195312 519.878906 359.777344 518.679688 358.933594 C 518.679688 358.933594 518.699219 354.199219 522.925781 354.199219 C 524.105469 354.199219 525.609375 354.566406 527.527344 355.5 C 531.949219 357.917969 531.59375 358.933594 532 360.386719 C 527.863281 360.652344 525.792969 360.785156 521.675781 361.046875 "/><path style=" stroke:none;fill-rule:nonzero;fill:#000000;fill-opacity:1;" d="M 557.492188 360.328125 C 555.308594 360.328125 551.882812 357.785156 552.078125 357.117188 C 552.148438 356.863281 551.863281 356.71875 551.4375 356.71875 C 550.492188 356.71875 548.816406 357.390625 548.644531 358.90625 C 548.5625 359.667969 547.839844 359.910156 546.9375 359.910156 C 545.207031 359.910156 542.78125 358.996094 542.78125 358.996094 C 541.234375 358.324219 540.464844 357.988281 538.929688 357.320312 C 539.335938 356.160156 539.550781 355.582031 539.957031 354.414062 C 544.46875 354.34375 546.722656 354.300781 551.246094 354.230469 C 551.246094 354.230469 548.492188 348.683594 549.832031 347.25 C 550.339844 346.710938 552.738281 346.550781 555.5 346.550781 C 559.992188 346.550781 565.460938 346.984375 565.460938 346.984375 C 565.460938 346.984375 574.808594 350.695312 574.632812 355.003906 C 574.480469 359.300781 560.429688 358.132812 558.753906 359.871094 C 558.4375 360.195312 558 360.328125 557.492188 360.328125 "/><path style=" stroke:none;fill-rule:nonzero;fill:#000000;fill-opacity:1;" d="M 589.347656 361.554688 C 587.394531 361.554688 585.800781 360.308594 585.476562 358.628906 C 584.816406 358.84375 584.09375 358.957031 583.332031 358.964844 C 583.300781 358.964844 583.28125 358.964844 583.25 358.964844 C 580.363281 358.964844 578.058594 357.371094 578.078125 355.390625 C 578.097656 353.386719 580.488281 351.730469 583.414062 351.699219 C 583.445312 351.699219 583.472656 351.699219 583.503906 351.699219 C 585.945312 351.699219 587.957031 352.847656 588.503906 354.402344 C 588.808594 354.332031 589.132812 354.28125 589.460938 354.269531 C 589.480469 354.269531 589.488281 354.269531 589.5 354.269531 C 591.703125 354.269531 593.460938 355.875 593.453125 357.878906 C 593.433594 359.890625 591.613281 361.546875 589.386719 361.554688 C 589.378906 361.554688 589.367188 361.554688 589.347656 361.554688 "/><path style=" stroke:none;fill-rule:nonzero;fill:#000000;fill-opacity:1;" d="M 601.550781 359.992188 C 600.695312 359.992188 599.851562 359.453125 599.425781 358.519531 C 599.089844 357.757812 599.101562 356.902344 599.394531 356.203125 C 599 355.886719 598.746094 355.398438 598.746094 354.820312 C 598.757812 353.855469 599.457031 353.074219 600.332031 353.0625 C 600.332031 353.0625 600.339844 353.0625 600.339844 353.0625 C 601.203125 353.0625 601.894531 353.835938 601.886719 354.800781 L 601.886719 354.808594 C 602.566406 354.972656 603.175781 355.460938 603.523438 356.210938 C 604.109375 357.511719 603.675781 359.085938 602.546875 359.726562 C 602.230469 359.910156 601.886719 359.992188 601.550781 359.992188 "/><path style=" stroke:none;fill-rule:nonzero;fill:#000000;fill-opacity:1;" d="M 608.214844 364.054688 C 607.363281 364.054688 606.519531 363.507812 606.09375 362.574219 C 605.492188 361.261719 605.929688 359.6875 607.058594 359.058594 C 607.371094 358.875 607.71875 358.792969 608.0625 358.792969 C 608.917969 358.792969 609.75 359.339844 610.175781 360.265625 C 610.777344 361.578125 610.347656 363.160156 609.210938 363.792969 C 608.898438 363.976562 608.5625 364.054688 608.214844 364.054688 "/><path style=" stroke:none;fill-rule:nonzero;fill:#000000;fill-opacity:1;" d="M 618.203125 382.8125 C 617.328125 382.8125 616.488281 381.859375 616.050781 380.230469 C 615.753906 379.105469 615.714844 377.875 615.886719 376.777344 C 615.035156 376.777344 614.179688 376.238281 613.742188 375.292969 C 613.335938 374.398438 613.40625 373.402344 613.84375 372.640625 C 613.753906 372.652344 613.660156 372.664062 613.582031 372.664062 C 612.71875 372.664062 611.875 372.125 611.445312 371.179688 L 611.304688 370.773438 L 611.089844 370.933594 C 610.765625 371.109375 610.429688 371.199219 610.085938 371.199219 C 609.230469 371.199219 608.378906 370.640625 607.953125 369.695312 C 607.351562 368.382812 607.789062 366.808594 608.925781 366.167969 C 609.242188 365.988281 609.578125 365.90625 609.921875 365.90625 C 610.777344 365.90625 611.621094 366.453125 612.046875 367.398438 L 612.199219 367.804688 L 612.414062 367.644531 C 612.726562 367.480469 613.0625 367.398438 613.398438 367.398438 C 614.261719 367.398438 615.113281 367.925781 615.550781 368.871094 C 615.949219 369.757812 615.878906 370.761719 615.441406 371.515625 C 615.53125 371.503906 615.621094 371.503906 615.703125 371.503906 C 616.566406 371.503906 617.421875 372.042969 617.847656 372.988281 C 617.960938 373.222656 618.019531 373.464844 618.0625 373.71875 C 618.914062 373.75 619.738281 374.675781 620.164062 376.28125 C 620.773438 378.546875 620.335938 381.277344 619.199219 382.367188 C 618.882812 382.671875 618.539062 382.8125 618.203125 382.8125 "/><path style=" stroke:none;fill-rule:nonzero;fill:#000000;fill-opacity:1;" d="M 614.757812 365.0625 C 613.894531 365.0625 613.050781 364.511719 612.625 363.578125 C 612.015625 362.269531 612.464844 360.691406 613.589844 360.054688 C 613.90625 359.878906 614.25 359.789062 614.585938 359.789062 C 615.449219 359.789062 616.292969 360.335938 616.71875 361.28125 C 617.320312 362.59375 616.882812 364.167969 615.753906 364.796875 C 615.441406 364.980469 615.09375 365.0625 614.757812 365.0625 "/><path style=" stroke:none;fill-rule:nonzero;fill:#000000;fill-opacity:1;" d="M 604.285156 368.578125 C 603.734375 368.578125 603.035156 368.273438 602.28125 367.652344 C 600.71875 366.363281 599.527344 364.167969 599.640625 362.765625 C 599.699219 362.035156 600.097656 361.667969 600.695312 361.667969 C 601.246094 361.667969 601.9375 361.972656 602.6875 362.582031 C 604.261719 363.882812 605.453125 366.066406 605.339844 367.46875 C 605.28125 368.203125 604.871094 368.578125 604.285156 368.578125 "/><path style=" stroke:none;fill-rule:nonzero;fill:#000000;fill-opacity:1;" d="M 611.050781 401.09375 C 609.660156 401.09375 608.976562 401.09375 607.585938 401.09375 C 607.597656 398.5 607.597656 397.210938 607.597656 394.621094 C 608.753906 394.621094 609.34375 394.621094 610.5 394.609375 C 610.511719 392.253906 610.511719 391.074219 610.511719 388.726562 C 611.679688 388.714844 612.269531 388.714844 613.4375 388.714844 C 613.4375 386.359375 613.4375 385.179688 613.449219 382.832031 C 614.832031 382.824219 615.53125 382.824219 616.914062 382.824219 C 616.902344 385.394531 616.902344 386.683594 616.902344 389.273438 C 615.734375 389.273438 615.144531 389.273438 613.976562 389.273438 C 613.976562 391.632812 613.976562 392.8125 613.964844 395.167969 C 612.808594 395.179688 612.21875 395.179688 611.050781 395.179688 C 611.050781 397.535156 611.050781 398.726562 611.050781 401.09375 "/><path style=" stroke:none;fill-rule:nonzero;fill:#000000;fill-opacity:1;" d="M 624.847656 394.628906 C 624.511719 394.628906 624.097656 389.265625 624.097656 389.265625 C 626.046875 389.964844 627.023438 390.3125 628.984375 391.011719 C 628.710938 392.445312 628.578125 393.167969 628.304688 394.597656 C 628.304688 394.597656 626.941406 394.40625 625.9375 394.40625 C 625.417969 394.40625 625 394.457031 624.890625 394.597656 C 624.871094 394.621094 624.859375 394.628906 624.847656 394.628906 "/><path style=" stroke:none;fill-rule:nonzero;fill:#000000;fill-opacity:1;" d="M 631.015625 797.769531 C 629.574219 795.949219 628.507812 795.480469 627.5625 795.480469 C 627.0625 795.480469 626.605469 795.613281 626.140625 795.746094 C 625.683594 795.878906 625.226562 796.011719 624.738281 796.011719 C 624.535156 796.011719 624.332031 795.992188 624.117188 795.941406 C 621.882812 795.371094 623.597656 790.757812 621.394531 790.757812 C 621.019531 790.757812 620.582031 790.789062 620.113281 790.789062 C 617.789062 790.789062 614.585938 790.097656 613.378906 781.980469 C 611.902344 772.222656 599.496094 762.308594 599.496094 762.308594 C 599.4375 760.964844 599.417969 760.296875 599.367188 758.953125 C 600.921875 758.261719 601.703125 757.90625 603.277344 757.195312 C 603.582031 755.023438 603.746094 753.925781 604.070312 751.71875 C 602.375 749.496094 601.53125 748.367188 599.824219 746.121094 C 599.773438 743.875 599.75 742.746094 599.710938 740.492188 C 595.859375 735.371094 593.910156 732.789062 589.988281 727.589844 C 588.644531 722.496094 587.957031 719.9375 586.605469 714.785156 C 582.050781 687.6875 577.742188 660.558594 573.710938 633.378906 C 581.878906 604.511719 548.582031 588.488281 539.214844 575.835938 C 537.710938 573.792969 524.175781 559.121094 521.25 546.808594 C 518.324219 534.503906 508.691406 523.070312 504.496094 517.289062 C 500.296875 511.488281 503 503.289062 504.675781 500.300781 C 506.355469 497.324219 507.097656 496.378906 503.863281 493.339844 C 500.625 490.292969 499.921875 485.164062 501.394531 484.246094 C 502.867188 483.34375 515.46875 463.226562 518.566406 453.726562 C 521.6875 444.234375 515.316406 429.378906 515.316406 429.378906 C 515.527344 428.070312 515.640625 427.417969 515.855469 426.109375 C 515.316406 424.320312 515.03125 423.414062 514.503906 421.628906 C 512.898438 420.125 511.503906 419.59375 510.359375 419.59375 C 507.714844 419.59375 506.332031 422.378906 506.332031 422.378906 C 506.332031 422.378906 506.242188 429.277344 503.429688 429.695312 C 503.335938 429.703125 503.253906 429.703125 503.152344 429.703125 C 500.1875 429.703125 493.441406 423.515625 490.179688 423.210938 C 486.816406 422.90625 475.40625 410.328125 475.40625 410.328125 C 475.40625 410.328125 476.023438 405.125 474.03125 404.3125 C 472.0625 403.5 468.984375 395.890625 468.984375 395.890625 C 468.605469 394.316406 468.425781 393.523438 468.066406 391.957031 C 467.285156 392.058594 466.542969 392.109375 465.800781 392.109375 C 458.425781 392.109375 452.59375 386.917969 439.871094 375.925781 C 437.523438 374.054688 436 373.402344 434.710938 373.402344 C 433.226562 373.402344 432.039062 374.257812 430.25 375.109375 C 428.460938 375.964844 426.0625 376.816406 422.160156 376.816406 C 422.082031 376.816406 422 376.808594 421.917969 376.808594 C 410.445312 376.714844 384.738281 352.929688 384.738281 352.929688 C 384.738281 352.929688 386.46875 348.976562 387.085938 340.808594 C 387.71875 332.628906 375.535156 319.714844 375.535156 319.714844 C 375.871094 317.570312 376.03125 316.503906 376.367188 314.371094 C 373.726562 309.554688 372.445312 307.1875 369.9375 302.523438 C 369.894531 297.453125 369.894531 294.933594 369.945312 289.921875 C 368.625 288.035156 367.285156 287.292969 366.09375 287.292969 C 363.441406 287.292969 361.511719 290.949219 362.0625 293.671875 C 363.960938 300.398438 364.96875 303.824219 367.101562 310.773438 C 367.089844 313.8125 367.089844 315.324219 367.109375 318.382812 C 367.515625 321.023438 367.730469 322.347656 368.15625 325.007812 C 369.246094 328.566406 369.804688 330.351562 370.941406 333.949219 C 370.617188 334 370.300781 334.03125 369.988281 334.03125 C 363.414062 334.03125 361.199219 322.457031 362.4375 321.003906 C 363.726562 319.480469 361.878906 318.078125 357.8125 315.589844 C 353.757812 313.101562 357.417969 308.457031 358.484375 305.601562 C 359.550781 302.746094 355.183594 295.632812 355.183594 295.632812 C 355.183594 295.632812 356.808594 287.675781 357.945312 283.238281 C 359.082031 278.796875 349.300781 275.320312 349.300781 275.320312 C 350.039062 268.332031 350.46875 264.867188 351.402344 258.007812 C 346.128906 252.652344 352.824219 242.636719 354.15625 242.332031 C 355.488281 242.035156 358.292969 241.253906 359.671875 236.214844 C 361.066406 231.164062 382.851562 205.214844 382.851562 205.214844 C 382.851562 205.214844 390.023438 204.195312 391.667969 202.164062 C 393.316406 200.144531 405.0625 189.941406 397.042969 185.980469 C 389.027344 182.003906 395.855469 176.375 395.855469 176.375 C 393.09375 175.941406 398.367188 167.699219 400.378906 165.3125 C 402.390625 162.933594 403.160156 159.074219 405.09375 152.519531 C 406.167969 148.820312 399.269531 147.09375 392.238281 147.09375 C 386.8125 147.09375 381.304688 148.121094 379.292969 150.058594 C 374.699219 154.511719 366.804688 159.335938 361.429688 160.960938 C 356.054688 162.597656 314.070312 196.636719 314.070312 196.636719 C 311.644531 197.460938 310.433594 197.898438 308.066406 198.761719 L 308.046875 198.769531 L 308.085938 198.742188 C 308.941406 198.078125 336.355469 176.894531 335.164062 176.671875 C 335.125 176.660156 335.085938 176.660156 335.054688 176.660156 C 333.761719 176.660156 330.777344 180.226562 328.691406 181.140625 C 328.246094 181.34375 327.859375 181.425781 327.554688 181.425781 C 326.386719 181.425781 326.273438 180.1875 327.554688 179.179688 C 329.179688 177.921875 335.207031 173.878906 335.988281 170.808594 C 336.78125 167.75 341.445312 164.050781 343.367188 162.140625 C 345.285156 160.242188 358.769531 152.539062 358.769531 152.539062 C 362.316406 149.296875 364.09375 147.671875 367.628906 144.410156 C 367.628906 144.410156 367.75 143.953125 367.34375 143.953125 C 367.050781 143.953125 366.480469 144.199219 365.375 145.039062 C 363.464844 146.492188 354.042969 153.414062 352.46875 153.414062 C 351.890625 153.414062 352.398438 152.449219 354.785156 149.878906 C 363.59375 140.417969 373.605469 137.277344 373.605469 137.277344 C 375.808594 135.328125 376.90625 134.351562 379.109375 132.390625 C 379.109375 132.390625 378.714844 132.523438 378.316406 132.523438 C 377.667969 132.523438 377.039062 132.125 378.429688 129.992188 C 380.644531 126.589844 385.421875 123.417969 385.421875 123.417969 C 388.246094 121.691406 389.679688 120.828125 392.542969 119.132812 C 412.253906 102.75 436.507812 90.546875 462.234375 88.070312 C 462.234375 88.070312 470.210938 86.523438 475.261719 82.835938 C 479.894531 79.472656 494.230469 71.121094 496.933594 71.121094 C 497.179688 71.121094 497.332031 71.191406 497.363281 71.34375 C 497.484375 71.851562 498.226562 72.035156 499.210938 72.035156 C 501.671875 72.035156 505.671875 70.90625 505.671875 70.90625 C 509.453125 69.820312 511.351562 69.28125 515.171875 68.257812 C 514.757812 69.382812 517.328125 69.707031 520.417969 69.707031 C 524.59375 69.707031 529.714844 69.121094 529.714844 69.121094 C 528.320312 70.988281 527.640625 71.914062 526.25 73.792969 C 530.160156 72.726562 532.121094 72.21875 536.0625 71.222656 C 538.003906 71.070312 538.96875 71 540.921875 70.855469 C 539.84375 72.949219 541.132812 76.355469 542.660156 76.34375 C 543.035156 76.34375 543.421875 76.140625 543.796875 75.664062 C 545.535156 73.40625 553.582031 64.230469 557.949219 64.230469 C 558.304688 64.230469 558.652344 64.292969 558.957031 64.425781 C 560.460938 65.097656 562.847656 65.308594 565.234375 65.308594 C 569.148438 65.308594 573.050781 64.742188 573.050781 64.742188 C 575.375 64.433594 576.554688 64.292969 578.890625 64.007812 C 579.1875 67.085938 580.628906 67.789062 581.867188 67.789062 C 582.90625 67.789062 583.789062 67.3125 583.789062 67.3125 C 586.429688 64.921875 587.753906 63.734375 590.375 61.367188 C 592.261719 60.890625 593.21875 60.644531 595.117188 60.179688 C 599.292969 54.355469 595.65625 51.652344 595.65625 51.652344 C 601.894531 48.644531 604.996094 47.183594 611.183594 44.328125 C 610.074219 47.621094 609.527344 49.277344 608.417969 52.597656 C 612.015625 53.351562 613.835938 53.746094 617.492188 54.570312 C 617.492188 54.570312 619.117188 54.894531 616.242188 57.070312 C 613.378906 59.242188 614.039062 61.609375 614.730469 63.085938 C 614.769531 63.164062 614.839844 63.195312 614.953125 63.195312 C 616.769531 63.195312 628.027344 51.90625 628.027344 51.90625 C 628.027344 51.90625 634.480469 51.5 636.359375 51.5 C 636.59375 51.5 636.757812 51.511719 636.828125 51.519531 C 636.847656 51.519531 636.878906 51.53125 636.921875 51.53125 C 637.042969 51.53125 637.234375 51.5 637.457031 51.480469 C 637.691406 51.449219 637.957031 51.429688 638.230469 51.429688 C 639.804688 51.429688 641.574219 52.242188 637.570312 58.632812 C 632.398438 66.882812 628.132812 67.179688 627.542969 67.179688 C 627.492188 67.179688 627.46875 67.179688 627.46875 67.179688 L 612.464844 69.027344 C 612.464844 69.027344 602.75 69.667969 600.617188 70.929688 C 598.480469 72.1875 603.277344 77.257812 603.277344 77.257812 C 598.683594 79.058594 596.386719 79.980469 591.796875 81.839844 C 591.796875 81.839844 584.398438 82.625 583.707031 82.695312 C 583.394531 84.808594 583.230469 85.855469 582.914062 87.96875 C 562.480469 92.957031 552.636719 112.242188 552.636719 112.242188 C 553.664062 112.527344 554.160156 112.679688 555.1875 112.972656 C 556.589844 116.175781 557.300781 117.789062 558.761719 121.050781 C 560.816406 120.859375 561.84375 120.777344 563.914062 120.605469 C 567.378906 122.777344 569.136719 123.875 572.683594 126.132812 C 587.082031 126.597656 584.132812 130.1875 584.132812 130.1875 C 577.234375 144.5625 580.203125 147.296875 583.453125 147.296875 C 585.457031 147.296875 587.578125 146.261719 587.578125 146.261719 C 589.582031 143.171875 591.675781 133.335938 597.984375 130.113281 C 617.917969 121.347656 615.5625 110.726562 615.5625 110.726562 C 615.753906 107.964844 615.847656 106.59375 616.039062 103.847656 C 616.324219 104.082031 616.609375 104.195312 616.882812 104.195312 C 618.652344 104.195312 620.15625 99.664062 622.289062 95.132812 C 624.433594 90.597656 627.195312 86.066406 631.515625 86.066406 C 631.574219 86.066406 631.636719 86.066406 631.707031 86.066406 C 633.863281 86.128906 663.183594 86.179688 654.671875 98.667969 C 649.144531 106.765625 651.714844 108.1875 654.203125 108.1875 C 655.542969 108.1875 656.867188 107.769531 656.867188 107.769531 C 664.171875 103.179688 667.808594 100.933594 674.902344 96.5625 C 674.902344 96.5625 677.878906 113.746094 675.511719 115.960938 C 673.144531 118.1875 681.171875 126.46875 681.171875 126.46875 C 681.007812 127.972656 680.925781 128.710938 680.742188 130.214844 C 684.460938 130.296875 686.3125 130.347656 690 130.460938 C 695.007812 151.839844 650.789062 153.675781 635.964844 155.578125 C 635.316406 157 635 157.703125 634.339844 159.125 C 638.757812 159.355469 640.972656 159.488281 645.402344 159.765625 C 632.664062 175.847656 645.789062 176.945312 649.621094 176.945312 C 650.230469 176.945312 650.597656 176.914062 650.597656 176.914062 C 653.148438 176.894531 654.417969 176.894531 656.96875 176.882812 C 656.835938 178.105469 656.773438 178.722656 656.640625 179.941406 C 656.601562 179.941406 656.5625 179.941406 656.519531 179.941406 C 652.761719 179.941406 629.992188 193.953125 629.992188 193.953125 C 629.992188 193.953125 627.480469 190.410156 626.535156 190.410156 C 626.496094 190.410156 626.445312 190.417969 626.414062 190.4375 C 626.414062 190.4375 644.652344 182.230469 637.691406 181.164062 C 606.894531 184.933594 603.328125 195.296875 603.328125 195.296875 C 602.648438 198.191406 602.3125 199.644531 601.621094 202.550781 C 589.410156 203.558594 585.566406 215.433594 578.394531 217 C 571.21875 218.574219 566.148438 227.972656 566.148438 227.972656 C 564.566406 228.066406 563.773438 228.105469 562.207031 228.195312 C 562.410156 230.078125 561.335938 250.539062 549.203125 254.675781 C 528.078125 261.035156 523.128906 276.46875 523.128906 276.46875 C 522.765625 284.976562 522.601562 289.253906 522.328125 297.859375 C 522.824219 298.113281 523.078125 298.246094 523.578125 298.5 C 523.902344 301.324219 521.859375 312.671875 517.613281 312.671875 C 517.378906 312.671875 517.132812 312.632812 516.878906 312.5625 C 506.894531 310.5 512.511719 288.207031 512.511719 288.207031 C 509.972656 286.183594 508.703125 285.179688 506.191406 283.1875 C 504.597656 283.746094 503.214844 283.96875 501.976562 283.96875 C 497.21875 283.96875 494.539062 280.65625 490.015625 280.289062 C 489.863281 280.28125 489.722656 280.269531 489.589844 280.269531 C 484.347656 280.269531 484.914062 288.378906 478.148438 290.503906 C 477.273438 290.777344 476.53125 290.886719 475.871094 290.886719 C 473.808594 290.886719 472.609375 289.730469 471.097656 288.570312 C 469.59375 287.414062 467.785156 286.253906 464.511719 286.253906 C 463.769531 286.253906 462.957031 286.316406 462.0625 286.449219 C 451.890625 287.933594 438.449219 301.007812 438.449219 301.007812 C 436.457031 306.089844 435.472656 308.640625 433.53125 313.71875 C 414.835938 345.929688 436.367188 357.097656 436.367188 357.097656 C 439.160156 358.171875 441.679688 358.640625 443.945312 358.640625 C 457.378906 358.640625 461.859375 342.375 461.859375 342.375 C 469.644531 338.289062 474.0625 336.945312 476.53125 336.945312 C 481.195312 336.945312 478.839844 341.742188 478.839844 341.742188 C 474.378906 354.628906 472.195312 361.089844 467.976562 373.992188 C 471.480469 373.476562 474.46875 373.242188 477 373.242188 C 494.027344 373.242188 490.890625 383.503906 490.890625 383.503906 C 489.894531 392.597656 489.425781 397.179688 488.550781 406.304688 C 486.9375 411.996094 496.449219 419.585938 499.800781 419.585938 C 500.074219 419.585938 500.320312 419.535156 500.5 419.421875 C 502.898438 417.988281 506.585938 415.640625 512.429688 415.5 C 512.511719 415.488281 512.582031 415.488281 512.664062 415.488281 C 518.40625 415.488281 523.527344 420.875 523.527344 420.875 C 529.53125 417.625 536.105469 404.789062 536.105469 404.789062 C 536.105469 404.789062 537.792969 405.289062 539.710938 405.289062 C 541.613281 405.289062 543.726562 404.800781 544.621094 402.859375 C 546.4375 398.957031 550.574219 396.164062 550.574219 396.164062 C 552.820312 396.152344 553.945312 396.152344 556.203125 396.144531 C 556.140625 397.484375 556.101562 398.15625 556.039062 399.496094 C 554.578125 400.695312 553.84375 401.296875 552.382812 402.484375 C 551.652344 407.179688 551.296875 409.527344 550.582031 414.199219 C 551.984375 416.203125 552.6875 417.207031 554.089844 419.21875 C 554.121094 419.238281 554.160156 419.238281 554.199219 419.238281 C 555.1875 419.238281 555.21875 412.777344 556.914062 405.339844 C 558.011719 400.554688 562.371094 398.542969 564.980469 398.542969 C 566.566406 398.542969 567.511719 399.292969 566.667969 400.613281 C 564.515625 404 586.300781 411.648438 591.695312 411.648438 C 591.855469 411.648438 592.007812 411.640625 592.140625 411.617188 C 592.292969 411.609375 592.464844 411.597656 592.648438 411.597656 C 594.457031 411.597656 597.882812 412.351562 601.691406 413.601562 C 601.691406 413.601562 603.929688 408.507812 605.6875 407.25 C 606.5 406.660156 607.871094 406.546875 609.152344 406.546875 C 609.597656 406.546875 610.035156 406.558594 610.429688 406.570312 C 610.816406 406.589844 611.183594 406.597656 611.476562 406.597656 C 611.851562 406.597656 612.128906 406.578125 612.230469 406.496094 C 612.667969 406.183594 613.0625 402.871094 615.035156 402.871094 C 615.390625 402.871094 615.796875 402.980469 616.261719 403.226562 C 619.320312 404.863281 615.671875 409.394531 613.417969 410.652344 C 611.953125 411.464844 610.695312 414.625 610.308594 417.136719 C 614.910156 419.460938 618.722656 422.296875 619.464844 425.203125 C 621.222656 432.203125 631.136719 441.066406 650.871094 441.066406 C 651.632812 441.066406 652.414062 441.054688 653.207031 441.023438 C 674.523438 457.007812 664.222656 461.164062 669.332031 465.113281 C 674.445312 469.058594 671.71875 473.011719 671.71875 473.011719 C 669.65625 476.707031 659.40625 489.238281 659.640625 491.441406 C 659.691406 491.890625 659.902344 492.070312 660.269531 492.070312 C 661.660156 492.070312 665.125 489.378906 668.722656 488.984375 C 668.945312 488.960938 669.171875 488.941406 669.382812 488.941406 C 673.578125 488.941406 676.628906 493.351562 676.628906 493.351562 C 682.59375 489.804688 685.578125 488.027344 691.535156 484.460938 C 710.605469 488.730469 701.542969 499.246094 702.191406 501.429688 C 702.285156 501.746094 702.488281 501.875 702.773438 501.875 C 704.429688 501.875 708.714844 497.214844 708.714844 497.214844 C 708.714844 497.214844 707.152344 495.628906 711.53125 495.628906 C 714.824219 495.628906 721.457031 496.523438 734.644531 499.652344 C 765.363281 506.945312 758.105469 525.746094 758.105469 525.746094 C 754.949219 535.082031 734.3125 546.339844 735 567.039062 C 738.902344 598.546875 719.191406 627.007812 719.191406 627.007812 C 719.191406 627.007812 712.546875 627.078125 710.453125 627.382812 C 708.359375 627.699219 689.5 637.300781 688.332031 643.140625 C 692.417969 664.742188 683.292969 666.550781 683.292969 666.550781 C 683.210938 670.066406 683.183594 671.824219 683.101562 675.320312 C 676.171875 684.566406 672.765625 689.128906 666.089844 698.082031 C 665.929688 698.164062 665.726562 698.203125 665.460938 698.203125 C 664.121094 698.203125 661.507812 697.195312 658.753906 696.191406 C 656.011719 695.183594 653.117188 694.179688 651.175781 694.179688 C 650.34375 694.179688 649.683594 694.363281 649.296875 694.820312 C 667.160156 720.40625 649.621094 721.980469 649.621094 721.980469 C 645.597656 721.917969 643.59375 721.867188 639.59375 721.753906 C 640.261719 724.285156 640.597656 725.554688 641.269531 728.066406 C 639.886719 731.265625 639.207031 732.863281 637.875 736.03125 C 633.902344 734.742188 631.921875 734.082031 627.9375 732.738281 C 631.332031 736.277344 633.019531 738.035156 636.351562 741.519531 C 636.382812 742.667969 636.402344 743.234375 636.441406 744.382812 C 635.222656 745.96875 634.625 746.75 633.414062 748.324219 C 633.863281 750.132812 634.074219 751.027344 634.511719 752.828125 C 633.089844 756.160156 632.378906 757.816406 630.996094 761.097656 C 634.21875 765.019531 635.8125 766.960938 638.953125 770.800781 C 636.695312 776.339844 635.597656 779.0625 633.464844 784.457031 C 634.855469 787.566406 635.558594 789.113281 636.921875 792.179688 C 634.53125 794.445312 633.34375 795.554688 631.015625 797.769531 M 543.859375 179.253906 C 544.050781 179.253906 544.191406 179.261719 544.285156 179.3125 C 545.046875 179.667969 548.003906 182.21875 539.691406 184.554688 C 531.378906 186.902344 518.597656 207.894531 518.597656 207.894531 C 518.597656 207.894531 519.472656 211.734375 520.578125 211.734375 C 520.882812 211.734375 521.210938 211.441406 521.542969 210.691406 C 523.078125 207.234375 541.703125 185.671875 544.335938 185.429688 C 544.445312 185.417969 544.558594 185.417969 544.671875 185.417969 C 547.160156 185.417969 549.304688 187.867188 548.289062 188.375 C 547.242188 188.90625 544.8125 193.75 545.769531 197.003906 C 546.082031 198.078125 546.671875 198.496094 547.375 198.496094 C 548.773438 198.496094 550.582031 196.820312 551.367188 195.417969 C 552.515625 193.367188 554.890625 190.582031 556.132812 190.582031 C 556.152344 190.582031 556.183594 190.589844 556.203125 190.589844 C 556.292969 190.601562 556.394531 190.601562 556.519531 190.601562 C 558.164062 190.601562 562.9375 189.71875 562.695312 185.195312 C 562.554688 182.390625 560.46875 181.445312 558.203125 181.445312 C 556.527344 181.445312 554.769531 181.964844 553.601562 182.625 C 553.113281 182.898438 552.625 183.011719 552.148438 183.011719 C 549.921875 183.011719 547.933594 180.441406 547.882812 179.191406 C 547.820312 177.65625 549.414062 170.492188 541.613281 168.09375 C 541.003906 167.902344 540.320312 167.8125 539.609375 167.8125 C 535.464844 167.8125 529.785156 170.707031 525.242188 173.59375 C 520.699219 176.476562 517.285156 179.363281 517.671875 179.363281 C 517.683594 179.363281 517.703125 179.363281 517.722656 179.355469 C 517.765625 179.34375 517.816406 179.332031 517.867188 179.332031 C 518.484375 179.332031 519.503906 180.410156 520.476562 181.488281 C 521.453125 182.574219 522.40625 183.652344 522.945312 183.652344 C 523.160156 183.652344 523.3125 183.46875 523.351562 183.03125 C 523.617188 180.605469 530.738281 177.25 532.8125 177.25 C 533.160156 177.25 533.363281 177.34375 533.371094 177.554688 C 533.414062 179.007812 538.625 180.308594 538.625 180.308594 C 538.625 180.308594 542.433594 179.253906 543.859375 179.253906 M 554.71875 200.964844 C 554.140625 200.964844 553.328125 201.828125 552.421875 202.917969 C 550.859375 204.835938 546.519531 205.386719 543.195312 206.105469 C 539.882812 206.816406 542.78125 208.820312 544.773438 209.621094 C 544.773438 209.621094 544.984375 209.632812 545.332031 209.632812 C 546.46875 209.632812 549.050781 209.582031 550.328125 209.195312 C 552.015625 208.6875 555.734375 205.589844 555.523438 202.691406 C 555.441406 201.441406 555.144531 200.964844 554.71875 200.964844 M 573.414062 190.285156 C 572.265625 190.285156 570.996094 192.125 569.105469 192.980469 C 566.789062 194.035156 565.0625 195.277344 564.960938 196.628906 C 564.960938 196.628906 573.230469 196.300781 573.914062 195.367188 C 574.582031 194.421875 575.558594 191.882812 574.199219 190.632812 C 573.945312 190.386719 573.679688 190.285156 573.414062 190.285156 "/><path style=" stroke:none;fill-rule:nonzero;fill:#000000;fill-opacity:1;" d="M 883.226562 171.175781 C 878.859375 169.457031 878.429688 163.738281 879.152344 163.078125 C 879.894531 162.414062 880.566406 159.539062 879.46875 159.125 C 878.359375 158.707031 877.230469 155.121094 877.230469 155.121094 C 877.230469 155.121094 877.964844 153.828125 878.96875 153.828125 C 879.292969 153.828125 879.640625 153.960938 880.007812 154.328125 C 880.269531 154.582031 880.542969 154.695312 880.828125 154.695312 C 882.179688 154.695312 883.652344 152.316406 883.652344 152.316406 C 883.652344 152.316406 890.53125 154.074219 891.742188 154.542969 C 892.949219 155.019531 895.207031 159.203125 894.503906 159.285156 C 893.792969 159.347656 892.371094 162.171875 892.371094 162.171875 C 892.371094 162.171875 896.222656 168.859375 893.824219 168.859375 C 893.683594 168.859375 893.53125 168.835938 893.355469 168.796875 C 892.960938 168.695312 892.535156 168.65625 892.066406 168.65625 C 888.542969 168.65625 883.226562 171.175781 883.226562 171.175781 "/><path style=" stroke:none;fill-rule:nonzero;fill:#000000;fill-opacity:1;" d="M 921.929688 183.234375 C 920.285156 183.234375 914.09375 180.835938 914.09375 180.835938 C 912.519531 180.816406 911.210938 180.816406 909.96875 180.816406 C 907.550781 180.816406 905.4375 180.835938 902.269531 180.886719 C 900.664062 179.890625 899.859375 179.382812 898.253906 178.386719 C 898.253906 178.386719 906.160156 177.65625 906.453125 176.933594 C 906.75 176.203125 900.96875 174.820312 900.722656 173.410156 C 900.480469 171.996094 898.0625 172.179688 898.5 170.535156 C 898.925781 168.886719 898.957031 166.207031 901.851562 165.820312 C 904.746094 165.433594 904.617188 162.933594 901.941406 159.042969 C 899.351562 157.925781 898.050781 157.367188 895.449219 156.257812 C 895.59375 155.902344 893.894531 150.851562 893.894531 150.851562 C 893.226562 150.660156 892.890625 150.558594 892.21875 150.355469 C 892.117188 148.871094 892.066406 148.128906 891.957031 146.65625 C 891.957031 146.65625 891.894531 143.414062 894.027344 143.414062 C 894.554688 143.414062 895.214844 143.609375 896.039062 144.097656 C 900.226562 146.542969 898.507812 147.265625 898.507812 147.265625 C 899.972656 147.875 900.714844 148.191406 902.175781 148.800781 C 902.175781 148.800781 901.070312 153.007812 900.949219 153.351562 C 900.816406 153.699219 904.21875 155.363281 904.21875 155.363281 C 904.21875 155.363281 915.679688 168.105469 917.265625 173.46875 C 919.074219 173.53125 919.980469 173.574219 921.765625 173.652344 C 921.765625 173.652344 923.921875 173.765625 923.007812 177.71875 C 922.691406 179.058594 922.222656 179.445312 921.746094 179.445312 C 921.429688 179.445312 921.097656 179.261719 920.8125 179.089844 C 920.527344 178.917969 920.285156 178.734375 920.121094 178.734375 C 919.980469 178.734375 919.898438 178.875 919.917969 179.28125 C 920.007812 181.265625 922.558594 182.238281 922.324219 183.082031 C 922.296875 183.183594 922.164062 183.234375 921.929688 183.234375 "/><path style=" stroke:none;fill-rule:nonzero;fill:#000000;fill-opacity:1;" d="M 982.875 177.878906 C 981.511719 177.21875 980.832031 176.894531 979.460938 176.234375 C 979.03125 175.410156 978.820312 174.996094 978.394531 174.160156 C 978.25 173.480469 978.179688 173.144531 978.039062 172.464844 C 978.71875 172.800781 979.0625 172.960938 979.734375 173.308594 C 980.636719 174.476562 981.09375 175.054688 982 176.222656 C 982.34375 176.882812 982.527344 177.21875 982.875 177.878906 "/><path style=" stroke:none;fill-rule:nonzero;fill:#000000;fill-opacity:1;" d="M 1042.8125 288.1875 C 1042.660156 288.1875 1042.488281 288.164062 1042.304688 288.125 C 1039.125 287.402344 1037.527344 287.039062 1034.308594 286.316406 C 1032.945312 286.019531 1031.542969 284.609375 1031.167969 283.1875 C 1030.832031 281.9375 1031.371094 281.09375 1032.398438 281.09375 C 1032.558594 281.09375 1032.734375 281.113281 1032.914062 281.15625 C 1036.117188 281.90625 1037.710938 282.28125 1040.882812 283.042969 C 1042.210938 283.371094 1043.613281 284.761719 1044.011719 286.152344 C 1044.355469 287.363281 1043.828125 288.1875 1042.8125 288.1875 "/><path style=" stroke:none;fill-rule:nonzero;fill:#000000;fill-opacity:1;" d="M 995.492188 267.945312 C 995.492188 267.945312 983.21875 264.5 983.085938 260.691406 C 982.996094 258.355469 983.738281 257.894531 984.328125 257.894531 C 984.703125 257.894531 985.019531 258.078125 985.019531 258.078125 C 985.679688 258.222656 995.402344 261.574219 995.402344 261.574219 C 995.453125 264.105469 995.472656 265.386719 995.492188 267.945312 "/><path style=" stroke:none;fill-rule:nonzero;fill:#000000;fill-opacity:1;" d="M 994.242188 273.871094 C 993.023438 273.625 992.414062 273.511719 991.195312 273.269531 C 990.871094 271.785156 990.699219 271.042969 990.363281 269.5625 C 992.355469 270.558594 993.347656 271.054688 995.339844 272.050781 C 994.902344 272.773438 994.679688 273.136719 994.242188 273.871094 "/><path style=" stroke:none;fill-rule:nonzero;fill:#000000;fill-opacity:1;" d="M 967.296875 238.539062 C 966.503906 238.539062 964.015625 237.71875 964.015625 237.71875 C 964.015625 237.71875 960.742188 232.179688 961.566406 231.589844 C 961.972656 231.296875 962.929688 231.214844 963.8125 231.214844 C 964.714844 231.214844 965.539062 231.296875 965.539062 231.296875 C 965.539062 231.296875 968.027344 238.398438 967.441406 238.519531 C 967.398438 238.53125 967.359375 238.539062 967.296875 238.539062 "/><path style=" stroke:none;fill-rule:nonzero;fill:#000000;fill-opacity:1;" d="M 968.566406 251.636719 C 967.5625 251.425781 967.054688 251.324219 966.046875 251.109375 C 966.046875 251.109375 957.175781 239.859375 963.800781 239.160156 C 965.609375 239.808594 966.503906 240.136719 968.292969 240.796875 C 969.320312 244.808594 969.808594 246.820312 970.761719 250.875 C 969.886719 251.171875 969.441406 251.332031 968.566406 251.636719 "/><path style=" stroke:none;fill-rule:nonzero;fill:#000000;fill-opacity:1;" d="M 947.839844 242.929688 C 947.078125 242.777344 946.691406 242.695312 945.929688 242.542969 C 945.65625 241.242188 945.503906 240.582031 945.226562 239.292969 C 946.222656 239.832031 946.722656 240.105469 947.726562 240.644531 C 947.769531 241.558594 947.789062 242.015625 947.839844 242.929688 "/><path style=" stroke:none;fill-rule:nonzero;fill:#000000;fill-opacity:1;" d="M 938.625 246.8125 C 937.515625 246.617188 936.957031 246.515625 935.851562 246.3125 C 935.746094 245.0625 935.6875 244.445312 935.574219 243.203125 C 936.84375 243.449219 937.476562 243.558594 938.753906 243.804688 C 938.574219 242.929688 938.492188 242.503906 938.320312 241.628906 C 938.625 241.464844 938.777344 241.375 939.082031 241.203125 C 938.9375 240.601562 938.855469 240.296875 938.703125 239.699219 C 938.949219 239.882812 943.15625 240.574219 943.15625 240.574219 C 943.46875 242.085938 943.632812 242.847656 943.949219 244.363281 C 943.5625 244.292969 943.378906 244.25 942.992188 244.179688 C 943.054688 244.617188 943.085938 244.839844 943.144531 245.285156 C 941.386719 244.953125 940.511719 244.777344 938.753906 244.453125 C 938.695312 245.386719 938.675781 245.867188 938.625 246.8125 "/><path style=" stroke:none;fill-rule:nonzero;fill:#000000;fill-opacity:1;" d="M 818.484375 366.828125 C 818.472656 366.828125 818.472656 366.828125 818.460938 366.828125 C 816.746094 366.800781 815.882812 366.777344 814.164062 366.75 C 813.269531 366.738281 812.539062 365.914062 812.519531 364.917969 C 812.507812 363.933594 813.1875 363.140625 814.0625 363.140625 C 814.082031 363.140625 814.082031 363.140625 814.09375 363.140625 C 815.820312 363.171875 816.675781 363.191406 818.390625 363.222656 C 819.285156 363.242188 820.015625 364.066406 820.039062 365.050781 C 820.058594 366.039062 819.355469 366.828125 818.484375 366.828125 "/><path style=" stroke:none;fill-rule:nonzero;fill:#000000;fill-opacity:1;" d="M 829.152344 371.085938 C 829.140625 371.085938 829.132812 371.085938 829.121094 371.085938 C 828.308594 371.078125 827.617188 370.316406 827.597656 369.390625 C 827.597656 369.105469 827.585938 368.953125 827.585938 368.667969 C 827.566406 367.753906 828.214844 367.023438 829.019531 367.023438 C 829.03125 367.023438 829.039062 367.023438 829.050781 367.023438 C 829.871094 367.042969 830.554688 367.804688 830.574219 368.71875 C 830.585938 369.015625 830.585938 369.15625 830.585938 369.441406 C 830.605469 370.355469 829.964844 371.085938 829.152344 371.085938 "/><path style=" stroke:none;fill-rule:nonzero;fill:#000000;fill-opacity:1;" d="M 826.480469 378.726562 C 826.480469 378.726562 826.46875 378.726562 826.46875 378.726562 C 825.441406 378.707031 824.925781 378.699219 823.898438 378.6875 C 823.1875 378.675781 822.597656 378.027344 822.585938 377.234375 C 822.578125 376.441406 823.136719 375.800781 823.835938 375.800781 C 823.847656 375.800781 823.859375 375.800781 823.859375 375.800781 C 824.882812 375.824219 825.402344 375.824219 826.429688 375.84375 C 827.140625 375.851562 827.71875 376.503906 827.730469 377.296875 C 827.738281 378.089844 827.179688 378.726562 826.480469 378.726562 "/><path style=" stroke:none;fill-rule:nonzero;fill:#000000;fill-opacity:1;" d="M 822.457031 370.976562 C 822.457031 370.976562 822.445312 370.976562 822.445312 370.976562 L 822.128906 370.976562 C 821.621094 370.964844 821.207031 370.5 821.195312 369.9375 C 821.183594 369.378906 821.582031 368.933594 822.070312 368.933594 C 822.078125 368.933594 822.078125 368.933594 822.089844 368.933594 L 822.40625 368.933594 C 822.914062 368.945312 823.328125 369.410156 823.339844 369.96875 C 823.351562 370.539062 822.953125 370.976562 822.457031 370.976562 "/><path style=" stroke:none;fill-rule:nonzero;fill:#000000;fill-opacity:1;" d="M 830.867188 378.777344 C 830.859375 378.777344 830.847656 378.777344 830.839844 378.777344 C 830.410156 378.777344 830.207031 378.769531 829.78125 378.769531 C 828.652344 378.75 827.738281 377.722656 827.71875 376.460938 C 827.699219 375.210938 828.582031 374.207031 829.679688 374.207031 C 829.691406 374.207031 829.699219 374.207031 829.710938 374.207031 C 830.136719 374.21875 830.351562 374.21875 830.777344 374.226562 C 831.894531 374.246094 832.820312 375.273438 832.839844 376.535156 C 832.859375 377.785156 831.976562 378.777344 830.867188 378.777344 "/><path style=" stroke:none;fill-rule:nonzero;fill:#000000;fill-opacity:1;" d="M 1047.871094 283.878906 C 1047.78125 283.878906 1047.679688 283.855469 1047.578125 283.835938 C 1046.976562 283.683594 1046.683594 283.613281 1046.082031 283.472656 C 1045.34375 283.277344 1044.550781 282.496094 1044.324219 281.722656 C 1044.121094 281.0625 1044.386719 280.625 1044.925781 280.625 C 1045.015625 280.625 1045.117188 280.636719 1045.230469 280.667969 C 1045.828125 280.820312 1046.125 280.890625 1046.714844 281.042969 L 1046.96875 281.132812 C 1043.371094 278.441406 1039.765625 274.253906 1038.980469 269.417969 C 1037.171875 267.945312 1036.257812 267.214844 1034.441406 265.71875 C 1034.390625 264.644531 1034.359375 264.105469 1034.296875 263.027344 C 1036.5625 263.636719 1037.699219 263.941406 1039.9375 264.5625 C 1039.9375 264.5625 1041.867188 264.429688 1042.730469 263.628906 C 1045.414062 270.953125 1046.703125 274.761719 1048.980469 282.097656 L 1049.03125 282.25 L 1049.132812 282.578125 L 1049.121094 282.578125 C 1048.707031 282.324219 1048.277344 282.058594 1047.839844 281.765625 C 1048.136719 282.070312 1048.359375 282.414062 1048.472656 282.769531 C 1048.675781 283.429688 1048.410156 283.878906 1047.871094 283.878906 "/><path style=" stroke:none;fill-rule:nonzero;fill:#000000;fill-opacity:1;" d="M 977.152344 630.867188 C 974.277344 630.867188 974.011719 626.398438 979.480469 620.585938 C 986.957031 612.617188 974.644531 605.851562 977.671875 600.007812 C 980.6875 594.15625 976.441406 563.226562 979.335938 558.1875 C 982.242188 553.136719 979.621094 544.695312 994.285156 525.347656 C 991.003906 517.136719 992.527344 500.679688 991.722656 498.898438 C 991.722656 498.898438 994.597656 497.648438 995.238281 494.226562 C 995.492188 492.90625 995.230469 492.40625 994.75 492.40625 C 993.988281 492.40625 992.679688 493.636719 991.9375 494.804688 C 991.765625 495.070312 991.570312 495.191406 991.367188 495.191406 C 990.109375 495.191406 988.421875 490.761719 989.203125 489.265625 C 990.117188 487.539062 979.988281 479.359375 980.730469 476.25 C 981.480469 473.152344 982.75 464.191406 984.855469 460.816406 C 986.957031 457.445312 987.933594 450.015625 986.632812 448.390625 C 986.5625 448.308594 986.429688 448.269531 986.257812 448.269531 C 985.433594 448.269531 983.738281 449.082031 983.738281 449.082031 C 983.738281 449.082031 982.191406 450.542969 980.558594 450.542969 C 980.242188 450.542969 979.917969 450.492188 979.601562 450.351562 C 977.679688 449.539062 982.082031 444.691406 982.082031 444.691406 C 979.640625 442.933594 977.164062 441.246094 977.164062 441.246094 C 973.242188 442.3125 971.269531 442.84375 967.308594 443.917969 C 967.308594 443.917969 969.625 431.890625 959.066406 431.890625 C 958.171875 431.890625 957.199219 431.972656 956.109375 432.152344 C 942.890625 434.417969 934.222656 443.015625 929.589844 443.015625 C 929.355469 443.015625 929.125 442.996094 928.898438 442.945312 C 926.855469 442.488281 923.078125 441.746094 918.910156 441.746094 C 914.066406 441.746094 908.679688 442.742188 904.871094 446.339844 C 904.097656 447.078125 903.140625 447.40625 902.054688 447.40625 C 893.226562 447.40625 875.726562 425.710938 875.21875 422.753906 C 874.640625 419.433594 873.421875 415.398438 873.421875 415.398438 C 873.421875 415.398438 863.625 401.273438 862.050781 400.917969 C 860.488281 400.554688 853.386719 397.128906 855.722656 391.988281 C 858.039062 386.835938 856.21875 381.136719 855.09375 378.820312 C 853.945312 376.503906 858.230469 369.859375 860.34375 366.75 C 862.46875 363.628906 861.554688 349.972656 859.410156 346.933594 C 857.257812 343.898438 851.859375 334.273438 866.339844 315.578125 C 880.820312 296.882812 890.378906 288.085938 890.378906 288.085938 C 891 281.226562 891.285156 277.820312 891.761719 271.074219 C 891.761719 271.074219 903.75 264.855469 905.691406 258.585938 C 906.324219 256.546875 906.941406 255.824219 907.59375 255.824219 C 908.921875 255.824219 910.347656 258.914062 912.082031 259.777344 C 914.613281 261.046875 920.71875 263.617188 921.460938 263.617188 C 921.480469 263.617188 921.492188 263.617188 921.511719 263.617188 C 924.96875 262.8125 937.28125 257.539062 942.140625 257.539062 C 942.597656 257.539062 942.992188 257.589844 943.308594 257.691406 C 946.894531 258.902344 966.472656 261.726562 966.472656 261.726562 C 966.472656 261.726562 968.210938 260.84375 970.457031 260.84375 C 974.265625 260.84375 979.539062 263.382812 980.273438 277.058594 C 982.894531 283.726562 998.773438 287.992188 1000.511719 288.976562 C 1000.511719 288.976562 1006.050781 294.199219 1006.222656 297.136719 C 1006.394531 300.0625 1016.222656 301.8125 1018.519531 303.824219 C 1018.894531 304.167969 1019.308594 304.300781 1019.714844 304.300781 C 1021.777344 304.300781 1023.984375 300.847656 1023.984375 300.847656 C 1023.984375 300.847656 1019.878906 291.761719 1023.996094 291.761719 C 1024.074219 291.761719 1024.15625 291.761719 1024.238281 291.773438 C 1028.738281 292.128906 1032.082031 293.96875 1032.082031 293.96875 C 1037.476562 297.472656 1040.160156 299.199219 1045.484375 302.625 C 1049.46875 303.609375 1051.457031 304.109375 1055.371094 305.113281 L 1055.402344 305.113281 L 1055.535156 305.765625 C 1077.582031 412.136719 1063.9375 510.574219 1012.980469 606.5625 L 1012.886719 606.734375 L 1012.859375 606.757812 C 1005.652344 613.554688 999.71875 619.0625 999.082031 619.152344 C 997.324219 619.40625 987.292969 623.734375 981.269531 628.867188 C 979.640625 630.246094 978.21875 630.867188 977.152344 630.867188 "/><path style=" stroke:none;fill-rule:nonzero;fill:#000000;fill-opacity:1;" d="M 1025.804688 276.347656 C 1025.488281 276.347656 1025.324219 276.023438 1025.324219 276.023438 C 1025.324219 276.023438 1018.210938 267.832031 1017.777344 266.738281 C 1017.582031 266.25 1018.210938 266.105469 1018.976562 266.105469 C 1019.910156 266.105469 1021.027344 266.320312 1021.027344 266.320312 C 1020.925781 265.507812 1020.886719 265.101562 1020.785156 264.296875 C 1020.785156 264.296875 1012.5625 262.449219 1011.445312 259.808594 C 1010.308594 257.164062 1003.714844 246.566406 1003.714844 246.566406 C 1003.714844 246.566406 999.324219 241.335938 994.191406 238.550781 C 989.070312 235.765625 981.886719 227.933594 980.363281 227.496094 C 978.839844 227.070312 976.472656 225.402344 975.578125 222.914062 C 975.273438 222.078125 974.542969 221.722656 973.800781 221.722656 C 972.316406 221.722656 970.800781 223.15625 972.640625 225.085938 C 975.394531 227.992188 983.261719 234.667969 985.972656 238.664062 C 988.6875 242.664062 998.898438 248.609375 1001.914062 250.894531 C 1004.921875 253.171875 1005.066406 254.816406 1005.066406 254.816406 C 1002.261719 254.054688 1000.847656 253.667969 998.023438 252.90625 C 998.023438 252.90625 999.445312 254.148438 999.996094 256.574219 C 1000.554688 258.992188 999.691406 262.507812 998.957031 262.507812 C 998.949219 262.507812 998.949219 262.507812 998.9375 262.507812 C 998.195312 262.46875 995.402344 261.574219 995.402344 261.574219 C 994.671875 258.527344 994.292969 257.011719 993.523438 253.984375 C 993.523438 253.984375 980.527344 239.769531 977.0625 239.769531 C 976.992188 239.769531 976.910156 239.78125 976.839844 239.800781 C 976.765625 239.808594 976.6875 239.820312 976.605469 239.820312 C 973.3125 239.820312 964.625 227.027344 964.503906 225.351562 C 964.441406 224.527344 962.835938 223.886719 960.988281 223.886719 C 958.945312 223.886719 956.617188 224.671875 955.765625 226.84375 C 955.226562 228.207031 954.039062 228.703125 952.65625 228.703125 C 949.808594 228.703125 946.121094 226.621094 945.460938 225.636719 C 945.085938 225.085938 943.9375 224.691406 942.777344 224.691406 C 940.867188 224.691406 938.9375 225.757812 940.382812 228.9375 C 941.601562 231.601562 941.683594 232.242188 941.480469 232.242188 C 941.296875 232.242188 940.878906 231.703125 940.878906 231.703125 C 940.878906 231.703125 929.355469 238.539062 929.550781 244.597656 C 929.742188 250.519531 924.570312 254.117188 922.375 254.117188 C 922.316406 254.117188 922.265625 254.117188 922.214844 254.105469 C 920.121094 253.933594 911.035156 252.855469 911.035156 252.855469 C 911.035156 252.855469 909.535156 253.800781 907.226562 253.800781 C 906.171875 253.800781 904.941406 253.597656 903.609375 253.019531 C 900.03125 251.476562 900.644531 246.953125 899.6875 246.953125 C 899.515625 246.953125 899.28125 247.105469 898.964844 247.460938 C 898.964844 247.460938 897.484375 247.988281 895.804688 247.988281 C 893.917969 247.988281 891.761719 247.320312 891.152344 244.484375 C 889.992188 239.121094 890.625 225.492188 890.320312 221.613281 C 890.023438 217.75 886.042969 211.460938 892.746094 211.460938 C 892.789062 211.460938 892.828125 211.460938 892.878906 211.460938 C 899.675781 211.53125 906.097656 217.363281 908.457031 217.363281 C 908.488281 217.363281 908.507812 217.363281 908.539062 217.363281 C 908.851562 217.34375 909.25 217.335938 909.675781 217.335938 C 912.367188 217.335938 916.808594 217.660156 917.285156 217.761719 C 917.863281 217.761719 920.558594 207.863281 917.90625 203.75 C 915.242188 199.613281 905.355469 194.542969 903.894531 191.964844 C 902.441406 189.382812 905.589844 189.496094 912.347656 188.640625 C 913.515625 188.488281 914.523438 188.4375 915.394531 188.4375 C 916.757812 188.4375 917.792969 188.570312 918.605469 188.703125 C 919.410156 188.832031 919.988281 188.964844 920.425781 188.964844 C 920.914062 188.964844 921.21875 188.804688 921.453125 188.296875 C 922.203125 186.730469 923.636719 182.667969 926.695312 182.667969 C 927.011719 182.667969 927.34375 182.71875 927.699219 182.808594 C 927.914062 182.859375 928.128906 182.890625 928.359375 182.890625 C 932.121094 182.890625 937.515625 175.503906 937.515625 175.503906 C 940.503906 176.5 941.996094 177.007812 944.953125 178.03125 C 944.953125 178.03125 947.65625 176.804688 946.019531 175.453125 C 944.382812 174.089844 938.441406 167.179688 939.710938 166.132812 C 940.910156 165.148438 942.382812 162.660156 943.347656 162.660156 C 943.417969 162.660156 943.480469 162.667969 943.542969 162.691406 C 944.496094 163.066406 946.457031 170.007812 946.457031 170.007812 C 946.457031 170.007812 947.542969 169.710938 948.835938 169.710938 C 949.757812 169.710938 950.796875 169.863281 951.621094 170.363281 C 953.582031 171.570312 957.035156 175.421875 955.976562 175.789062 C 955.855469 175.828125 955.722656 175.847656 955.570312 175.847656 C 955.105469 175.847656 954.464844 175.6875 953.84375 175.523438 C 953.222656 175.359375 952.625 175.207031 952.199219 175.207031 C 951.894531 175.207031 951.679688 175.289062 951.648438 175.523438 C 951.488281 176.425781 952.777344 179.882812 953.945312 179.882812 C 954.046875 179.882812 954.160156 179.851562 954.261719 179.789062 C 954.484375 179.660156 954.839844 179.597656 955.265625 179.597656 C 957.238281 179.597656 960.816406 180.757812 960.816406 180.757812 C 962.492188 182.207031 963.324219 182.941406 964.992188 184.394531 C 968.363281 184.453125 970.019531 184.515625 973.292969 184.6875 C 975.679688 186.160156 976.867188 186.902344 979.257812 188.375 C 981.035156 187.480469 981.898438 187.066406 983.574219 186.273438 C 982.011719 183.023438 981.21875 181.394531 979.601562 178.183594 C 981.644531 179.140625 982.660156 179.628906 984.683594 180.59375 C 985.890625 181.457031 986.5 181.894531 987.710938 182.757812 C 987.710938 182.757812 989.0625 182.421875 987.507812 180.53125 C 986.011719 178.722656 982.152344 174.335938 983.128906 174.335938 C 983.167969 174.335938 983.21875 174.34375 983.289062 174.363281 C 984.785156 174.792969 990.3125 178.4375 990.3125 178.4375 C 990.3125 178.4375 994.476562 179.890625 995.796875 179.890625 C 996.195312 179.890625 996.328125 179.761719 996 179.40625 C 996 179.40625 988.929688 174.171875 988.410156 174.171875 C 988.410156 174.171875 988.410156 174.171875 988.402344 174.171875 C 988.390625 174.171875 988.378906 174.171875 988.359375 174.171875 C 987.75 174.171875 983.65625 173.003906 983.105469 172.554688 C 982.546875 172.097656 974.652344 167.242188 974.257812 166.417969 C 973.859375 165.597656 967.003906 160.71875 967.519531 156.53125 C 968.039062 152.347656 968.464844 151.097656 966.433594 149.1875 C 965.601562 148.394531 964.078125 147.925781 962.625 147.925781 C 960.5625 147.925781 958.660156 148.851562 959.058594 151.035156 C 959.746094 154.773438 956.789062 153.421875 957.351562 154.96875 C 957.917969 156.523438 964.003906 162.761719 965.417969 163.320312 C 966.828125 163.878906 967.074219 167.191406 967.074219 167.191406 C 967.074219 167.191406 963.476562 167.71875 964.714844 172.332031 C 965.589844 175.554688 963.769531 176.519531 962.113281 176.519531 C 961.402344 176.519531 960.722656 176.347656 960.296875 176.09375 C 958.894531 175.238281 952.867188 169.710938 952.867188 169.710938 C 952.867188 169.710938 944.71875 157.539062 942.699219 156.410156 C 942.421875 156.257812 942.148438 156.199219 941.886719 156.199219 C 941.125 156.199219 940.410156 156.714844 939.78125 157.234375 C 939.152344 157.761719 938.582031 158.28125 938.136719 158.28125 C 938.035156 158.28125 937.933594 158.25 937.851562 158.1875 C 935.636719 157.324219 934.539062 156.898438 932.304688 156.046875 C 932.304688 156.046875 927.171875 152.507812 926.523438 149.9375 C 925.863281 147.367188 923.148438 142.257812 923.148438 142.257812 C 923.148438 142.257812 920.304688 136.351562 925.027344 136.351562 C 925.984375 136.351562 927.265625 136.597656 928.941406 137.1875 C 929.773438 137.523438 930.503906 137.675781 931.144531 137.675781 C 933.726562 137.675781 934.945312 135.257812 936.480469 132.847656 C 938.023438 130.429688 939.882812 128.011719 943.773438 128.011719 C 946.78125 128.011719 951 129.464844 957.207031 133.46875 C 957.207031 133.46875 969.808594 141.800781 980.089844 152.019531 C 980.710938 152.632812 981.328125 153.230469 981.949219 153.820312 L 982.050781 153.910156 C 983.695312 156.035156 984.507812 157.101562 986.125 159.253906 L 986.113281 159.246094 C 985.648438 158.921875 985.3125 158.707031 985.191406 158.695312 C 985.179688 158.695312 985.179688 158.695312 985.179688 158.695312 C 984.964844 158.695312 986.226562 160.078125 988.175781 162.050781 L 988.308594 162.191406 C 988.816406 162.882812 989.304688 163.605469 989.8125 164.296875 C 991.214844 166.226562 992.597656 168.15625 993.949219 170.109375 C 994.710938 171.183594 995.460938 172.273438 996.214844 173.367188 C 997.648438 175.460938 999.058594 177.566406 1000.453125 179.679688 C 1001.070312 180.625 1001.703125 181.558594 1002.300781 182.503906 C 1004.121094 185.308594 1005.898438 188.121094 1007.636719 190.96875 C 1007.796875 191.230469 1007.972656 191.496094 1008.132812 191.761719 C 1010.085938 194.960938 1011.972656 198.183594 1013.832031 201.421875 C 1014.230469 202.125 1014.617188 202.824219 1015.003906 203.527344 C 1016.414062 206.015625 1017.796875 208.523438 1019.15625 211.054688 C 1019.714844 212.101562 1020.265625 213.148438 1020.8125 214.195312 C 1021.984375 216.421875 1023.128906 218.664062 1024.269531 220.910156 C 1024.828125 222.050781 1025.394531 223.175781 1025.964844 224.324219 C 1027.074219 226.589844 1028.171875 228.886719 1029.238281 231.183594 C 1029.726562 232.242188 1030.234375 233.296875 1030.722656 234.355469 C 1032.042969 237.25 1033.320312 240.164062 1034.582031 243.09375 C 1034.746094 243.476562 1034.917969 243.855469 1035.089844 244.230469 L 1035.089844 244.242188 C 1034.785156 245.734375 1035.203125 248.597656 1034.632812 250.253906 C 1033.941406 252.308594 1037.699219 254.289062 1039.429688 257.296875 C 1039.640625 257.652344 1040.140625 258.070312 1040.800781 258.507812 L 1040.839844 258.546875 C 1041.125 259.289062 1041.269531 259.664062 1041.542969 260.417969 L 1041.511719 260.394531 C 1040.503906 259.664062 1039.316406 259.429688 1038.1875 259.429688 C 1035.996094 259.429688 1034.023438 260.324219 1034.023438 260.324219 C 1034.023438 260.324219 1029.867188 258.070312 1028.394531 257.285156 C 1028.179688 257.175781 1027.988281 257.113281 1027.804688 257.113281 C 1026.808594 257.113281 1026.433594 258.8125 1025.792969 260.019531 C 1025.589844 260.40625 1025.273438 260.558594 1024.917969 260.558594 C 1023.953125 260.558594 1022.644531 259.398438 1022.328125 258.710938 C 1022.246094 258.515625 1022.074219 258.425781 1021.859375 258.425781 C 1021.027344 258.425781 1019.714844 259.859375 1022.09375 262.226562 C 1025.0625 265.183594 1029.125 269.316406 1027.652344 273.492188 C 1026.828125 275.832031 1026.199219 276.347656 1025.804688 276.347656 "/><path style=" stroke:none;fill-rule:nonzero;fill:#000000;fill-opacity:1;" d="M 976.21875 459.992188 C 975.507812 459.992188 974.988281 459.375 975.050781 458.570312 L 975.089844 458.054688 C 975.160156 457.21875 975.820312 456.5 976.585938 456.449219 C 976.613281 456.449219 976.636719 456.449219 976.664062 456.449219 C 977.375 456.449219 977.90625 457.066406 977.84375 457.871094 L 977.792969 458.390625 C 977.742188 459.222656 977.0625 459.941406 976.308594 459.992188 C 976.28125 459.992188 976.25 459.992188 976.21875 459.992188 "/><path style=" stroke:none;fill-rule:nonzero;fill:#000000;fill-opacity:1;" d="M 972.53125 466.152344 C 971.695312 466.152344 971.109375 465.441406 971.179688 464.503906 C 971.269531 463.519531 972.050781 462.675781 972.9375 462.605469 C 973.566406 462.566406 973.882812 462.542969 974.511719 462.492188 C 974.542969 462.492188 974.574219 462.492188 974.613281 462.492188 C 975.445312 462.492188 976.046875 463.214844 975.964844 464.148438 C 975.894531 465.113281 975.089844 465.957031 974.207031 466.03125 C 973.585938 466.082031 973.273438 466.101562 972.652344 466.152344 C 972.609375 466.152344 972.570312 466.152344 972.53125 466.152344 "/></g></svg>