<svg xmlns="http://www.w3.org/2000/svg" xmlns:xlink="http://www.w3.org/1999/xlink" width="1920" zoomAndPan="magnify" viewBox="0 0 1440 809.999993" height="1080" preserveAspectRatio="xMidYMid meet" version="1.2"><defs><clipPath id="ab3222036c"><path d="M 282 284.039062 L 1136 284.039062 L 1136 643 L 282 643 Z M 282 284.039062 "/></clipPath><clipPath id="20eddbc2cf"><path d="M 281.019531 284.039062 L 1060 284.039062 L 1060 643.773438 L 281.019531 643.773438 Z M 281.019531 284.039062 "/></clipPath><clipPath id="989dc8f254"><path d="M 281.019531 346 L 1018 346 L 1018 640 L 281.019531 640 Z M 281.019531 346 "/></clipPath><clipPath id="2b85ceb3f4"><path d="M 635 417.46875 L 825 417.46875 L 825 625.734375 L 635 625.734375 Z M 635 417.46875 "/></clipPath><clipPath id="81a49d9b76"><path d="M 581 417.46875 L 762 417.46875 L 762 552 L 581 552 Z M 581 417.46875 "/></clipPath></defs><g id="12620259d9"><g clip-rule="nonzero" clip-path="url(#ab3222036c)"><path style=" stroke:none;fill-rule:nonzero;fill:#000000;fill-opacity:1;" d="M 1134.042969 635.417969 C 1133.1875 636.613281 1131.652344 637.464844 1130.289062 637.292969 C 1124.316406 637.464844 1118.511719 636.953125 1112.710938 635.929688 C 1106.054688 634.5625 1100.253906 632.003906 1093.257812 631.832031 L 1091.890625 631.832031 C 1085.746094 631.832031 1079.433594 632.175781 1073.289062 632.34375 C 1069.023438 632.34375 1064.585938 631.664062 1060.492188 630.640625 C 1058.273438 630.125 1055.882812 629.785156 1053.664062 629.613281 C 1046.328125 628.933594 1038.816406 629.445312 1031.480469 629.613281 C 1026.871094 629.613281 1022.265625 629.613281 1017.65625 629.445312 C 1008.953125 629.273438 1000.421875 628.761719 991.714844 628.589844 L 987.792969 628.589844 C 984.039062 628.589844 980.113281 628.761719 976.359375 629.101562 C 974.820312 629.273438 973.457031 629.445312 971.921875 629.613281 C 965.605469 630.640625 959.804688 632.855469 953.832031 634.5625 C 940.519531 638.148438 926.867188 637.464844 913.046875 637.464844 L 867.308594 637.464844 C 862.191406 637.464844 857.070312 637.464844 851.949219 637.464844 C 836.59375 637.464844 821.234375 637.464844 805.875 637.804688 C 796.148438 637.976562 786.25 638.488281 776.523438 639.171875 C 761.503906 640.195312 746.65625 639.683594 731.640625 639.855469 C 730.105469 639.855469 728.566406 639.855469 727.203125 640.023438 C 721.742188 640.367188 716.28125 641.21875 710.648438 641.902344 C 703.3125 642.753906 695.800781 643.097656 688.464844 642.753906 C 683.34375 642.585938 678.394531 642.414062 673.277344 642.074219 C 663.207031 641.5625 652.96875 640.707031 642.898438 640.367188 C 628.222656 639.855469 613.546875 639.855469 598.871094 638.660156 C 584.195312 637.464844 569.859375 636.269531 555.695312 633.371094 C 548.527344 631.664062 541.359375 630.640625 534.191406 630.296875 C 530.949219 630.125 527.707031 629.957031 524.464844 629.785156 C 520.539062 629.445312 516.445312 629.101562 512.519531 628.589844 C 482.65625 624.835938 453.472656 617.839844 423.4375 617.328125 C 408.761719 617.15625 393.914062 615.621094 379.410156 617.328125 C 372.414062 618.179688 365.585938 619.71875 358.417969 619.886719 C 351.25 620.058594 344.597656 621.082031 337.597656 621.933594 C 325.484375 623.300781 314.046875 621.253906 301.933594 619.546875 C 295.105469 618.523438 283.84375 616.988281 282.136719 608.625 C 281.625 606.40625 282.648438 604.015625 284.695312 603.164062 C 284.867188 602.480469 285.378906 601.796875 285.890625 601.285156 C 292.546875 594.628906 299.03125 587.632812 305.855469 580.976562 C 312.855469 574.152344 320.363281 567.839844 327.359375 561.011719 C 334.015625 554.699219 341.351562 548.726562 347.839844 542.238281 C 354.324219 535.753906 360.296875 529.097656 367.292969 523.296875 C 374.289062 517.496094 381.285156 512.203125 388.453125 506.914062 C 402.449219 496.332031 417.464844 487.289062 433.164062 479.4375 C 448.867188 472.273438 465.25 466.8125 481.972656 463.226562 C 490.675781 461.351562 499.039062 458.960938 507.398438 456.058594 C 515.421875 452.816406 523.101562 448.550781 530.097656 443.429688 C 545.796875 432.679688 558.425781 418.855469 572.589844 406.226562 C 579.585938 399.914062 586.925781 393.941406 594.261719 387.96875 C 601.429688 381.824219 608.257812 375.339844 614.742188 368.171875 C 621.054688 361.515625 628.050781 355.714844 635.730469 350.59375 C 643.410156 345.476562 649.894531 339.332031 657.234375 333.699219 C 664.574219 328.070312 672.765625 323.800781 680.273438 318.683594 C 687.78125 313.5625 695.800781 310.148438 703.480469 305.882812 C 710.480469 301.957031 715.597656 296.496094 721.742188 291.378906 C 727.203125 286.601562 734.199219 284.039062 741.367188 284.382812 L 742.390625 284.550781 C 747.167969 285.0625 751.09375 287.28125 755.191406 289.5 C 757.410156 290.695312 759.457031 292.0625 761.84375 293.085938 C 770.378906 297.179688 778.742188 300.082031 786.25 305.882812 C 789.832031 308.273438 793.074219 311.34375 795.976562 314.585938 C 798.023438 317.660156 799.902344 320.902344 801.265625 324.3125 C 804.851562 331.824219 810.824219 338.648438 816.285156 344.964844 C 821.914062 351.617188 828.402344 357.421875 835.398438 362.371094 C 842.90625 367.488281 849.5625 373.976562 858.09375 377.730469 C 865.773438 381.3125 873.28125 384.214844 880.109375 389.503906 C 886.253906 394.792969 892.054688 400.597656 897.34375 406.910156 C 902.804688 413.394531 908.609375 419.199219 915.265625 424.488281 C 922.773438 430.289062 930.28125 435.582031 937.449219 441.722656 C 951.785156 454.011719 967.144531 464.761719 981.136719 477.390625 C 995.128906 490.019531 1009.636719 502.136719 1022.265625 516.300781 C 1028.578125 523.46875 1035.234375 530.125 1042.570312 536.265625 C 1049.570312 541.898438 1056.054688 547.871094 1062.195312 554.355469 C 1074.484375 568.007812 1084.554688 583.195312 1098.546875 595.144531 C 1111.34375 606.066406 1125.167969 615.449219 1134.726562 629.445312 C 1135.75 631.492188 1135.578125 633.882812 1134.042969 635.417969 Z M 1134.042969 635.417969 "/></g><g clip-rule="nonzero" clip-path="url(#20eddbc2cf)"><path style=" stroke:none;fill-rule:nonzero;fill:#231f20;fill-opacity:1;" d="M 676.519531 371.414062 C 675.152344 372.097656 673.789062 372.949219 672.421875 373.804688 C 671.058594 374.828125 670.035156 376.191406 668.839844 377.386719 C 666.449219 379.777344 664.0625 381.824219 661.5 384.042969 C 656.210938 388.820312 651.089844 393.601562 647.507812 399.574219 C 645.628906 402.472656 644.09375 405.546875 642.898438 408.789062 C 641.875 412.03125 641.535156 415.273438 640.679688 418.515625 C 639.144531 425.855469 638.121094 433.191406 637.609375 440.53125 C 637.4375 444.285156 636.925781 448.039062 636.074219 451.792969 C 635.5625 454.523438 635.21875 457.425781 634.878906 460.15625 C 634.367188 466.640625 632.148438 472.953125 628.734375 478.414062 C 626.6875 481.488281 623.957031 484.046875 621.054688 486.265625 C 618.496094 488.3125 616.105469 490.359375 613.71875 492.578125 C 608.257812 497.1875 602.625 501.453125 596.652344 505.378906 C 593.75 507.253906 591.019531 509.304688 588.121094 511.011719 C 585.21875 512.375 582.488281 514.082031 579.929688 515.960938 C 577.199219 518.347656 574.125 520.394531 571.226562 522.445312 C 568.664062 524.152344 566.277344 526.199219 564.226562 528.417969 C 559.621094 532.683594 555.523438 537.289062 551.769531 542.410156 C 549.894531 545.3125 548.355469 548.382812 546.480469 551.285156 C 544.773438 554.015625 543.40625 556.746094 542.554688 559.816406 C 541.53125 563.230469 540.164062 566.472656 538.800781 569.886719 C 537.777344 572.957031 537.09375 576.03125 536.753906 579.273438 C 535.386719 586.4375 533.339844 593.265625 531.292969 600.261719 C 529.242188 607.257812 527.539062 614.425781 526 621.421875 C 525.488281 623.984375 525.148438 626.542969 524.636719 629.101562 C 520.710938 628.761719 516.613281 628.421875 512.691406 627.910156 C 482.824219 624.152344 453.644531 617.15625 423.609375 616.644531 C 420.367188 616.644531 416.953125 616.472656 413.710938 616.304688 C 402.277344 615.792969 390.84375 615.28125 379.578125 616.472656 C 372.582031 617.328125 365.757812 618.863281 358.589844 619.035156 C 351.421875 619.203125 344.765625 620.230469 337.769531 621.082031 C 325.652344 622.449219 314.21875 620.398438 302.101562 618.691406 C 301.078125 618.523438 300.054688 618.351562 298.859375 618.179688 C 295.617188 617.667969 292.375 616.816406 289.472656 615.621094 C 287.769531 614.9375 286.0625 613.742188 284.695312 612.378906 C 283.5 611.183594 282.648438 609.648438 282.308594 607.941406 C 281.964844 607.769531 281.964844 607.257812 281.964844 606.746094 C 282.136719 605.039062 283.160156 603.503906 284.695312 602.820312 C 284.867188 602.308594 285.207031 601.796875 285.378906 601.457031 C 285.378906 601.285156 285.550781 601.285156 285.550781 601.285156 L 285.71875 601.117188 C 292.375 594.460938 298.859375 587.464844 305.6875 580.808594 C 312.683594 573.980469 320.191406 567.667969 327.1875 560.839844 C 333.84375 554.527344 341.183594 548.554688 347.667969 542.070312 C 354.152344 535.585938 360.125 528.929688 367.121094 523.125 C 374.117188 517.324219 381.117188 512.035156 388.285156 506.742188 C 402.277344 496.332031 417.292969 487.289062 432.824219 479.609375 C 448.523438 472.441406 464.90625 466.980469 481.632812 463.398438 C 490.335938 461.519531 498.695312 459.132812 507.058594 456.230469 C 515.078125 452.988281 522.757812 448.722656 529.753906 443.601562 C 545.457031 432.851562 558.085938 419.027344 572.25 406.398438 C 579.246094 400.085938 586.582031 394.113281 593.921875 388.140625 C 601.089844 381.996094 607.914062 375.511719 614.398438 368.34375 L 614.914062 367.832031 C 621.054688 361.347656 627.882812 355.714844 635.390625 350.765625 C 643.070312 345.644531 649.554688 339.503906 656.894531 333.871094 C 664.230469 328.238281 672.421875 323.972656 679.929688 318.851562 C 687.441406 313.734375 695.460938 310.320312 703.140625 306.054688 C 710.136719 302.128906 715.257812 296.667969 721.402344 291.546875 C 726.863281 286.769531 733.859375 284.210938 741.027344 284.550781 L 742.050781 284.722656 C 741.367188 286.257812 740.683594 287.625 740 289.160156 C 736.757812 295.644531 732.492188 301.277344 728.910156 307.589844 C 728.054688 309.125 725.496094 312.367188 726.179688 314.246094 C 726.519531 315.269531 728.054688 316.636719 728.738281 317.488281 C 729.59375 318.683594 730.273438 320.046875 730.617188 321.414062 C 732.324219 327.726562 728.910156 333.53125 724.300781 337.796875 C 719.695312 342.0625 714.746094 345.988281 709.453125 349.570312 C 706.554688 351.449219 703.992188 353.667969 701.261719 355.714844 C 698.703125 357.25 695.972656 358.785156 693.242188 360.152344 C 690.171875 361.859375 687.441406 364.078125 684.539062 365.953125 C 681.636719 367.832031 679.417969 369.878906 676.519531 371.414062 Z M 852.632812 583.707031 C 850.757812 577.566406 848.195312 571.59375 845.125 565.960938 C 843.589844 563.230469 841.710938 560.5 839.835938 557.941406 C 837.957031 555.550781 835.738281 553.332031 833.863281 550.941406 C 831.984375 548.726562 830.449219 546.164062 829.425781 543.265625 C 829.082031 541.898438 828.570312 540.535156 828.402344 539.167969 C 828.058594 537.632812 827.375 536.097656 827.035156 534.558594 C 826.695312 530.804688 826.695312 527.222656 827.035156 523.46875 C 827.207031 519.882812 828.402344 516.128906 828.914062 512.546875 C 829.253906 509.132812 829.9375 505.550781 830.960938 502.308594 C 832.324219 498.550781 833.351562 494.628906 833.691406 490.53125 C 834.03125 486.777344 833.691406 482.851562 833.691406 479.097656 C 833.863281 477.050781 833.863281 475.171875 833.691406 473.125 C 833.351562 471.417969 833.179688 469.710938 833.179688 468.175781 C 833.519531 466.8125 833.863281 465.617188 834.375 464.421875 C 834.714844 462.886719 835.054688 461.519531 835.566406 459.984375 C 836.421875 457.425781 837.957031 455.035156 839.835938 453.160156 C 841.710938 451.28125 841.710938 448.039062 839.835938 446.160156 C 839.492188 445.820312 839.152344 445.648438 838.8125 445.480469 C 837.617188 443.601562 835.398438 442.75 833.351562 443.261719 C 827.890625 443.941406 822.769531 446.160156 818.160156 449.234375 C 814.066406 452.476562 810.140625 456.058594 806.558594 459.984375 C 804.851562 461.863281 803.144531 464.082031 801.265625 465.957031 C 799.046875 468.003906 797 470.054688 795.125 472.273438 C 791.710938 476.539062 788.636719 481.144531 785.90625 485.925781 C 784.882812 488.140625 783.519531 490.019531 781.984375 491.898438 C 780.277344 493.773438 778.742188 495.820312 777.035156 497.871094 C 775.667969 499.578125 774.132812 501.28125 772.425781 502.648438 C 770.207031 504.183594 767.988281 505.550781 765.769531 507.253906 C 757.578125 513.742188 751.777344 522.613281 746.828125 531.660156 C 741.539062 541.726562 736.078125 551.625 731.640625 562.207031 C 729.421875 567.324219 727.375 572.617188 725.667969 577.90625 C 724.984375 580.125 724.132812 582.34375 723.105469 584.390625 C 721.742188 586.78125 720.035156 589 718.671875 591.21875 C 717.988281 592.753906 716.964844 594.117188 715.769531 595.3125 C 713.890625 596.679688 712.015625 598.214844 710.136719 599.75 C 708.429688 601.285156 706.722656 602.992188 705.019531 604.527344 C 703.992188 605.554688 703.3125 606.746094 702.289062 607.601562 C 701.433594 608.28125 700.410156 608.964844 699.558594 609.476562 C 697.851562 611.011719 696.144531 612.71875 694.609375 614.597656 C 692.730469 616.304688 690.683594 618.011719 688.804688 619.886719 C 684.878906 623.472656 681.296875 627.566406 678.054688 631.832031 C 676.007812 635.074219 674.300781 638.660156 673.277344 642.242188 C 678.226562 642.585938 683.34375 642.753906 688.464844 642.925781 C 695.800781 643.265625 703.3125 642.925781 710.648438 642.074219 C 717.644531 640.878906 724.644531 640.195312 731.640625 640.023438 C 746.65625 639.855469 761.503906 640.367188 776.523438 639.34375 C 801.609375 637.636719 826.863281 637.636719 851.949219 637.804688 C 852.292969 636.269531 852.464844 634.5625 852.804688 633.027344 C 853.65625 629.613281 854.679688 626.371094 855.707031 622.960938 C 856.558594 620.058594 857.070312 616.988281 857.242188 613.914062 C 857.410156 610.332031 857.410156 606.746094 857.242188 603.164062 C 856.730469 596.167969 855.023438 589.851562 852.632812 583.707031 Z M 734.199219 428.070312 C 732.835938 429.949219 731.46875 431.828125 729.933594 433.53125 C 728.398438 435.238281 726.519531 436.777344 724.984375 438.480469 C 723.617188 440.359375 722.425781 442.578125 721.570312 444.796875 C 720.546875 446.671875 719.351562 448.378906 717.816406 449.914062 C 713.378906 454.523438 720.207031 461.179688 724.8125 456.914062 C 729.078125 452.476562 734.539062 449.234375 739.660156 445.820312 C 744.949219 442.40625 750.582031 439.675781 756.554688 437.457031 C 762.871094 435.070312 768.84375 432.167969 774.644531 428.753906 C 779.082031 426.023438 784.371094 422.269531 786.933594 417.492188 C 788.296875 414.589844 788.296875 411.347656 787.101562 408.617188 C 785.90625 405.546875 784.882812 402.644531 784.03125 399.402344 C 783.175781 396.671875 782.835938 393.769531 782.664062 390.871094 C 782.664062 387.628906 782.835938 384.382812 782.835938 381.140625 C 782.835938 378.242188 783.175781 375.511719 783.859375 372.78125 C 784.542969 369.707031 786.078125 366.808594 787.101562 363.734375 C 788.125 361.003906 788.808594 358.105469 788.980469 355.203125 C 788.808594 352.300781 787.957031 349.570312 786.589844 347.183594 C 784.03125 342.402344 779.933594 336.773438 775.328125 333.871094 C 772.9375 332.335938 770.378906 331.480469 768.160156 329.773438 C 765.769531 327.558594 762.527344 326.363281 759.285156 326.019531 C 754.335938 325.851562 753.3125 331.652344 755.871094 334.382812 C 756.726562 336.089844 757.578125 337.964844 758.261719 339.84375 C 758.773438 342.0625 759.285156 344.453125 759.457031 346.839844 C 759.628906 347.695312 759.796875 348.546875 760.140625 349.402344 C 760.140625 349.742188 760.308594 349.742188 760.308594 349.742188 C 760.140625 349.914062 760.140625 350.253906 760.140625 350.425781 C 759.457031 352.472656 759.285156 354.519531 758.601562 356.566406 C 757.238281 360.664062 755.019531 364.589844 753.484375 368.683594 C 751.777344 372.097656 750.070312 375.339844 748.023438 378.410156 C 745.976562 382.335938 744.78125 386.601562 744.949219 391.039062 C 745.121094 395.648438 744.949219 400.085938 744.269531 404.523438 C 743.925781 406.570312 743.246094 408.789062 742.730469 410.835938 C 742.390625 412.882812 741.707031 414.933594 740.855469 416.980469 C 738.808594 420.90625 736.589844 424.488281 734.199219 428.070312 Z M 1058.273438 629.273438 C 1052.300781 625.007812 1045.644531 621.765625 1039.5 617.839844 C 1036.429688 616.132812 1033.527344 614.257812 1030.796875 612.207031 C 1028.066406 609.988281 1025.507812 607.769531 1022.777344 605.550781 C 1016.972656 600.773438 1014.074219 594.628906 1010.828125 588.144531 C 1009.125 584.734375 1007.246094 581.492188 1005.367188 578.078125 C 1003.664062 575.003906 1002.296875 571.59375 1000.25 568.691406 C 998.203125 565.789062 995.472656 563.914062 993.421875 561.183594 C 991.203125 558.109375 988.472656 555.550781 985.402344 553.503906 C 984.378906 552.820312 983.355469 552.308594 982.332031 551.796875 C 981.988281 551.625 980.792969 550.773438 980.625 550.773438 C 979.601562 549.917969 978.578125 549.066406 977.550781 548.210938 C 976.359375 547.1875 974.992188 546.335938 973.628906 545.652344 C 972.433594 545.140625 971.238281 544.800781 970.042969 544.117188 C 969.191406 543.433594 968.507812 542.75 967.65625 542.238281 C 965.605469 540.703125 964.925781 538.484375 963.386719 536.265625 C 961.511719 533.707031 958.949219 531.488281 956.21875 529.78125 C 953.832031 528.246094 952.296875 525.855469 949.734375 524.492188 C 947.175781 523.125 944.617188 521.933594 942.054688 520.566406 C 936.59375 517.324219 930.621094 514.59375 924.480469 512.546875 C 921.578125 511.691406 917.996094 514.082031 918.164062 517.324219 C 918.335938 519.03125 918.847656 520.566406 919.871094 521.933594 C 920.210938 522.613281 920.726562 523.125 921.238281 523.808594 L 922.261719 525.175781 C 923.625 527.050781 924.480469 528.929688 925.671875 530.804688 C 926.867188 532.683594 928.234375 534.390625 929.257812 536.4375 C 931.476562 540.363281 932.160156 545.484375 933.183594 549.75 C 934.035156 554.1875 936.082031 558.453125 938.984375 561.867188 C 941.886719 565.277344 945.46875 568.007812 948.542969 571.25 C 951.613281 574.492188 954.855469 578.417969 957.925781 582.003906 C 959.292969 583.710938 960.828125 585.246094 962.363281 586.78125 C 964.242188 588.144531 965.949219 589.851562 967.484375 591.558594 C 968.847656 593.265625 970.042969 594.800781 971.410156 596.335938 C 972.773438 597.875 972.433594 598.554688 972.261719 600.261719 C 972.089844 604.871094 970.554688 608.964844 972.089844 613.574219 C 973.628906 618.179688 973.96875 623.128906 975.164062 627.910156 C 975.164062 628.25 975.332031 628.589844 975.332031 628.933594 C 980.453125 628.589844 985.574219 628.421875 990.691406 628.589844 C 1004.003906 628.761719 1017.144531 629.785156 1030.457031 629.613281 C 1037.792969 629.613281 1045.472656 629.101562 1052.640625 629.613281 C 1054.859375 629.785156 1057.246094 630.296875 1059.464844 630.640625 C 1059.636719 630.296875 1058.953125 629.785156 1058.273438 629.273438 Z M 1058.273438 629.273438 "/></g><g clip-rule="nonzero" clip-path="url(#989dc8f254)"><path style=" stroke:none;fill-rule:nonzero;fill:#231f20;fill-opacity:1;" d="M 614.742188 368.171875 L 615.253906 367.660156 C 614.914062 369.539062 614.058594 371.414062 612.863281 372.949219 C 612.011719 374.144531 610.816406 375 610.132812 376.191406 C 609.453125 377.386719 608.425781 379.09375 607.402344 380.460938 C 604.84375 383.359375 602.113281 386.089844 599.042969 388.480469 C 593.410156 393.601562 588.460938 399.230469 584.195312 405.375 C 579.585938 412.03125 574.980469 419.199219 569.859375 425.339844 C 565.25 430.972656 559.789062 436.09375 555.867188 442.40625 C 553.816406 445.480469 551.429688 448.378906 548.867188 451.109375 C 546.652344 453.839844 544.261719 456.570312 541.703125 458.960938 C 535.730469 464.25 528.5625 468.175781 521.394531 471.757812 C 517.640625 473.636719 513.886719 475.515625 510.300781 477.390625 C 506.71875 479.097656 503.476562 480.976562 500.234375 483.195312 C 497.332031 485.242188 494.601562 487.460938 492.210938 490.019531 C 489.652344 492.75 487.605469 495.820312 485.214844 498.722656 C 482.824219 501.453125 480.265625 504.011719 477.535156 506.402344 C 476.171875 507.769531 474.804688 509.132812 473.78125 510.839844 C 472.585938 512.203125 471.222656 513.570312 469.683594 514.765625 C 466.785156 517.324219 464.054688 520.226562 461.152344 522.785156 C 458.25 525.34375 455.179688 527.90625 452.449219 530.636719 C 447.160156 536.097656 441.015625 541.046875 436.066406 546.847656 C 431.457031 552.648438 427.363281 558.964844 423.949219 565.621094 C 422.074219 568.519531 420.535156 571.761719 419.511719 575.003906 C 418.488281 578.589844 417.976562 582.34375 416.78125 586.097656 C 416.101562 587.804688 415.757812 589.683594 415.589844 591.558594 C 415.417969 593.4375 415.246094 595.484375 414.90625 597.359375 C 414.050781 601.457031 413.710938 605.382812 413.710938 609.476562 C 413.710938 611.867188 413.710938 614.257812 413.710938 616.472656 C 402.277344 615.960938 390.84375 615.449219 379.578125 616.644531 C 372.582031 617.5 365.757812 619.035156 358.589844 619.207031 C 351.421875 619.375 344.765625 620.398438 337.769531 621.253906 C 325.652344 622.617188 314.21875 620.570312 302.101562 618.863281 C 301.078125 618.691406 300.054688 618.523438 298.859375 618.351562 C 295.617188 617.839844 292.546875 616.988281 289.472656 615.792969 C 287.769531 615.109375 286.0625 613.914062 284.695312 612.550781 C 283.5 611.355469 282.648438 609.820312 282.308594 608.113281 C 281.964844 607.941406 281.964844 607.429688 281.964844 606.917969 C 282.136719 605.210938 283.160156 603.675781 284.695312 602.992188 C 284.867188 602.480469 285.207031 601.96875 285.378906 601.628906 C 285.378906 601.628906 285.550781 601.457031 285.550781 601.457031 L 285.71875 601.285156 C 292.375 594.628906 298.859375 587.632812 305.6875 580.976562 C 312.683594 574.152344 320.191406 567.839844 327.1875 561.011719 C 333.84375 554.699219 341.183594 548.726562 347.667969 542.238281 C 354.152344 535.753906 360.125 529.097656 367.121094 523.296875 C 374.117188 517.496094 381.117188 512.203125 388.285156 506.914062 C 402.277344 496.503906 417.292969 487.289062 432.824219 479.609375 C 448.523438 472.441406 464.90625 466.980469 481.632812 463.398438 C 490.335938 461.519531 498.695312 459.132812 507.058594 456.230469 C 515.078125 452.988281 522.757812 448.722656 529.753906 443.601562 C 545.457031 432.851562 558.085938 419.027344 572.25 406.398438 C 579.246094 400.085938 586.582031 394.113281 593.921875 388.140625 C 601.429688 381.824219 608.425781 375.167969 614.742188 368.171875 Z M 813.894531 560.328125 C 811.507812 555.550781 809.457031 550.941406 806.726562 546.335938 C 801.777344 537.972656 801.949219 527.394531 807.410156 519.203125 C 808.773438 516.8125 807.921875 513.742188 805.53125 512.375 C 804.851562 512.035156 803.996094 511.691406 803.144531 511.691406 C 799.902344 511.863281 798.707031 513.742188 797 516.128906 C 795.292969 518.007812 793.585938 519.714844 791.710938 521.421875 C 787.445312 525.6875 783.6875 530.292969 780.277344 535.242188 C 777.035156 540.191406 774.304688 545.484375 772.253906 551.113281 C 770.378906 556.234375 770.207031 561.695312 768.671875 566.984375 C 766.792969 572.273438 764.574219 577.394531 761.84375 582.34375 C 760.652344 584.902344 759.113281 587.292969 758.089844 590.023438 C 757.75 591.046875 757.238281 592.070312 756.726562 593.09375 C 755.871094 594.460938 754.679688 595.484375 753.824219 596.847656 C 752.628906 598.898438 751.09375 600.773438 749.558594 602.480469 C 747.339844 604.871094 745.121094 607.429688 743.074219 609.820312 C 739.660156 614.257812 736.417969 619.207031 733.859375 624.152344 C 730.957031 628.933594 728.738281 634.222656 727.375 639.683594 C 728.910156 639.511719 730.273438 639.511719 731.808594 639.511719 C 746.828125 639.34375 761.675781 639.855469 776.691406 638.832031 C 786.417969 638.148438 796.316406 637.804688 806.042969 637.464844 L 806.214844 637.292969 C 811.164062 628.078125 814.238281 618.011719 816.796875 607.769531 C 819.699219 597.191406 820.550781 586.097656 819.183594 575.347656 C 817.992188 570.226562 816.285156 565.109375 813.894531 560.328125 Z M 1014.414062 623.8125 C 1012.707031 620.230469 1010.832031 616.644531 1009.292969 613.0625 C 1007.757812 609.476562 1006.734375 605.550781 1005.199219 601.796875 C 1003.664062 598.214844 1001.613281 594.628906 999.226562 591.558594 C 998.03125 589.851562 996.664062 588.316406 995.300781 586.953125 C 994.617188 586.4375 993.933594 585.925781 993.253906 585.414062 C 993.253906 585.414062 993.082031 585.246094 993.082031 585.246094 C 992.398438 583.878906 991.375 582.855469 990.179688 582.171875 C 986.769531 580.464844 981.136719 583.539062 983.011719 587.804688 C 983.355469 588.488281 983.695312 589.167969 984.039062 589.683594 C 984.207031 589.683594 984.550781 589.851562 984.550781 590.195312 C 984.550781 590.023438 984.550781 590.195312 984.550781 590.363281 L 984.378906 590.195312 L 984.550781 590.535156 C 984.71875 591.21875 984.890625 591.730469 985.0625 592.414062 C 985.742188 594.972656 986.425781 597.359375 987.28125 599.75 C 988.816406 604.359375 989.667969 608.964844 990.179688 613.742188 C 990.351562 615.449219 990.351562 617.15625 990.011719 618.863281 C 989.839844 620.058594 989.839844 621.253906 989.5 622.449219 C 989.15625 623.300781 988.816406 624.324219 988.304688 625.179688 C 987.792969 626.371094 987.621094 627.566406 987.621094 628.761719 L 991.546875 628.761719 C 1000.25 628.933594 1008.78125 629.445312 1017.484375 629.613281 C 1016.121094 627.566406 1015.265625 625.519531 1014.414062 623.8125 Z M 761.84375 411.6875 C 764.40625 412.371094 767.136719 410.835938 767.988281 408.277344 C 768.5 405.886719 768.671875 403.496094 769.011719 401.109375 C 769.355469 398.71875 770.378906 396.160156 770.890625 393.601562 C 771.402344 391.039062 770.890625 388.480469 771.402344 385.75 C 771.914062 383.019531 771.914062 380.289062 771.914062 377.386719 C 771.742188 376.535156 771.742188 375.511719 771.914062 374.65625 C 772.253906 373.632812 772.765625 372.78125 773.28125 371.925781 C 774.132812 369.707031 774.644531 367.488281 774.984375 365.101562 C 775.496094 362.710938 776.523438 360.664062 776.863281 358.273438 C 777.203125 355.886719 775.839844 353.496094 775.667969 350.9375 C 775.328125 344.621094 765.429688 344.621094 765.769531 350.9375 C 765.769531 352.300781 766.113281 353.496094 766.28125 354.863281 C 766.453125 355.375 766.453125 355.714844 766.625 356.226562 C 766.625 356.398438 766.964844 357.59375 766.964844 357.25 C 766.964844 358.785156 765.429688 361.859375 765.089844 363.90625 C 764.746094 365.613281 764.40625 367.320312 763.550781 368.855469 C 762.1875 371.246094 761.675781 373.976562 761.675781 376.535156 C 761.84375 378.921875 761.84375 381.140625 761.503906 383.53125 C 761.164062 384.898438 760.992188 386.433594 760.992188 387.796875 C 761.164062 388.820312 761.164062 389.84375 761.164062 390.871094 C 760.992188 393.429688 759.796875 395.988281 759.285156 398.378906 C 758.773438 400.765625 758.601562 403.15625 758.261719 405.546875 C 757.75 408.277344 759.285156 410.835938 761.84375 411.6875 Z M 761.84375 411.6875 "/></g><path style=" stroke:none;fill-rule:nonzero;fill:#000000;fill-opacity:1;" d="M 1134.042969 635.417969 C 1133.1875 636.613281 1131.652344 637.464844 1130.289062 637.292969 C 1124.316406 637.464844 1118.511719 636.953125 1112.710938 635.929688 C 1106.054688 634.5625 1100.253906 632.003906 1093.257812 631.832031 L 1091.890625 631.832031 C 1090.867188 630.46875 1089.671875 629.101562 1088.476562 627.738281 C 1085.234375 623.640625 1082.335938 619.203125 1079.605469 614.769531 C 1076.875 610.671875 1073.800781 606.917969 1070.21875 603.335938 C 1063.050781 595.824219 1056.222656 587.804688 1050.082031 579.441406 C 1046.839844 575.175781 1043.253906 571.25 1039.839844 567.324219 C 1037.964844 565.277344 1036.257812 563.230469 1034.890625 560.839844 C 1033.699219 558.964844 1032.84375 557.085938 1031.820312 555.210938 C 1029.261719 551.285156 1026.019531 547.699219 1022.433594 544.800781 C 1020.386719 542.921875 1018.507812 541.046875 1016.460938 539.339844 C 1014.585938 537.972656 1012.878906 536.4375 1011.171875 534.730469 C 1007.929688 531.316406 1005.371094 527.222656 1001.957031 524.152344 C 998.542969 521.078125 994.449219 517.664062 990.863281 514.253906 C 987.28125 510.839844 983.011719 507.769531 979.257812 504.355469 C 975.503906 500.941406 971.921875 497.527344 967.996094 494.457031 C 964.070312 491.386719 959.804688 488.824219 955.367188 486.605469 C 950.929688 484.386719 946.835938 481.828125 942.738281 478.925781 C 941.03125 477.390625 939.15625 476.027344 937.109375 474.832031 C 935.058594 473.808594 933.183594 472.953125 931.304688 471.757812 C 926.867188 469.027344 922.429688 466.640625 918.335938 463.566406 C 914.238281 460.835938 910.484375 457.59375 907.074219 454.011719 C 903.660156 450.257812 900.757812 445.992188 897.515625 442.066406 C 891.203125 434.386719 885.570312 426.023438 878.230469 419.367188 C 870.382812 412.203125 861.167969 406.570312 852.464844 400.597656 C 848.195312 397.695312 844.273438 394.453125 840.347656 391.382812 C 836.25 388.480469 832.324219 385.410156 828.570312 381.996094 C 824.988281 378.582031 821.746094 374.828125 818.332031 371.074219 C 814.917969 367.320312 810.992188 363.90625 807.75 360.152344 C 801.097656 352.644531 794.78125 344.964844 790.515625 335.917969 C 789.320312 333.53125 788.636719 331.140625 787.785156 328.75 C 786.933594 326.363281 785.738281 324.3125 784.714844 322.265625 C 782.835938 318.511719 781.472656 314.585938 778.570312 311.34375 C 772.085938 304.347656 764.0625 299.398438 757.921875 292.0625 C 757.238281 291.207031 756.554688 290.355469 755.871094 289.671875 C 758.089844 290.867188 760.140625 292.230469 762.527344 293.253906 C 771.0625 297.351562 779.421875 300.253906 786.933594 306.054688 C 790.515625 308.445312 793.757812 311.515625 796.660156 314.757812 C 798.707031 317.828125 800.585938 321.070312 801.949219 324.484375 C 805.53125 331.992188 811.507812 338.820312 816.96875 345.132812 C 822.597656 351.789062 829.082031 357.59375 836.082031 362.539062 C 843.589844 367.660156 850.246094 374.144531 858.777344 377.898438 C 866.457031 381.484375 873.964844 384.382812 880.792969 389.675781 C 886.933594 394.964844 892.738281 400.9375 898.027344 407.082031 C 903.488281 413.566406 909.289062 419.367188 915.945312 424.660156 C 923.457031 430.460938 930.964844 435.75 938.132812 441.894531 C 952.464844 454.183594 967.824219 464.933594 981.820312 477.5625 C 995.8125 490.191406 1010.316406 502.308594 1022.945312 516.472656 C 1029.261719 523.636719 1035.917969 530.292969 1043.253906 536.4375 C 1050.25 542.070312 1056.734375 548.042969 1062.878906 554.527344 C 1075.167969 568.179688 1085.234375 583.367188 1099.230469 595.3125 C 1112.027344 606.234375 1125.851562 615.621094 1135.40625 629.613281 C 1135.75 631.492188 1135.578125 633.882812 1134.042969 635.417969 Z M 1134.042969 635.417969 "/><g clip-rule="nonzero" clip-path="url(#2b85ceb3f4)"><path style=" stroke:none;fill-rule:nonzero;fill:#ffffff;fill-opacity:1;" d="M 808.363281 437.769531 C 795.5 424.667969 778.378906 417.453125 760.152344 417.453125 L 760.0625 417.453125 C 741.804688 417.476562 724.644531 424.726562 711.742188 437.871094 L 710.074219 439.570312 C 709.824219 439.824219 709.828125 440.230469 710.074219 440.480469 C 730.191406 460.980469 743.621094 474.664062 764.773438 496.203125 C 771.214844 502.765625 771.546875 511.265625 765.625 517.855469 C 757.949219 526.398438 741.097656 530.242188 728.355469 519.375 L 728.210938 519.242188 C 727.246094 518.398438 716.875 509.414062 699.761719 494.59375 C 699.417969 494.296875 698.886719 494.316406 698.558594 494.644531 C 685.121094 508.132812 652.992188 539.738281 635.863281 557.046875 C 635.609375 557.300781 635.617188 557.714844 635.871094 557.964844 L 647.671875 569.566406 C 647.925781 569.816406 648.335938 569.816406 648.589844 569.566406 C 660.988281 557.007812 685.386719 532.3125 700.429688 517.101562 C 701.253906 516.265625 702.371094 515.808594 703.519531 515.8125 C 704.691406 515.8125 705.785156 516.285156 706.609375 517.128906 C 708.300781 518.867188 708.292969 521.675781 706.585938 523.40625 C 691.589844 538.566406 667.300781 563.152344 654.871094 575.742188 C 654.617188 575.996094 654.625 576.410156 654.882812 576.660156 L 666.675781 588.261719 C 666.929688 588.511719 667.339844 588.511719 667.59375 588.261719 C 677.710938 578.003906 699.855469 555.542969 715.488281 539.6875 L 719.046875 536.078125 C 719.871094 535.242188 720.964844 534.78125 722.128906 534.78125 L 722.136719 534.78125 C 723.304688 534.78125 724.402344 535.25 725.226562 536.09375 C 726.917969 537.824219 726.914062 540.644531 725.210938 542.371094 C 709.632812 558.175781 684.839844 583.3125 673.871094 594.441406 C 673.621094 594.695312 673.625 595.101562 673.882812 595.359375 L 685.914062 607.191406 C 686.171875 607.441406 686.582031 607.441406 686.832031 607.1875 L 737.953125 555.347656 C 738.777344 554.511719 739.871094 554.050781 741.035156 554.050781 L 741.042969 554.050781 C 742.210938 554.050781 743.308594 554.519531 744.132812 555.363281 C 745.824219 557.09375 745.820312 559.910156 744.117188 561.640625 L 693.109375 613.367188 C 692.859375 613.621094 692.859375 614.035156 693.117188 614.289062 L 703.449219 624.449219 C 703.898438 624.894531 704.519531 625.140625 705.136719 625.132812 C 705.773438 625.125 706.367188 624.871094 706.808594 624.417969 L 800.902344 528.578125 C 824.949219 504.082031 836.570312 466.519531 808.363281 437.78125 Z M 808.363281 437.769531 "/></g><g clip-rule="nonzero" clip-path="url(#81a49d9b76)"><path style=" stroke:none;fill-rule:nonzero;fill:#ffffff;fill-opacity:1;" d="M 705.421875 487.832031 C 728.523438 507.828125 732.941406 511.664062 733.902344 512.507812 L 733.972656 512.566406 C 743.242188 520.480469 754.855469 516.671875 759.183594 511.855469 C 761.066406 509.765625 762.492188 506.4375 758.601562 502.472656 C 736.234375 479.699219 722.507812 465.710938 700.371094 443.15625 L 698.945312 441.710938 C 698.140625 440.894531 697.328125 440.066406 696.511719 439.230469 L 695.171875 437.867188 C 682.253906 424.710938 665.066406 417.46875 646.773438 417.46875 L 646.765625 417.46875 C 628.519531 417.46875 611.402344 424.683594 598.550781 437.773438 C 586.066406 450.488281 580.429688 466.015625 582.246094 482.667969 C 583.964844 498.402344 592.394531 514.699219 605.992188 528.539062 L 606.542969 529.097656 C 606.625 529.183594 606.71875 529.277344 606.8125 529.378906 L 607.339844 529.914062 L 628.664062 550.882812 C 628.917969 551.132812 629.324219 551.132812 629.582031 550.882812 C 647.578125 532.695312 681.996094 498.800781 692.425781 488.328125 C 696.003906 484.734375 701.59375 484.523438 705.414062 487.835938 Z M 705.421875 487.832031 "/></g></g></svg>